<mxfile host="Electron" modified="2024-07-16T05:56:09.853Z" agent="Mozilla/5.0 (Windows NT 10.0; Win64; x64) AppleWebKit/537.36 (KHTML, like Gecko) draw.io/24.4.13 Chrome/124.0.6367.207 Electron/30.0.6 Safari/537.36" etag="RrDBQuS6eOJRR_f0ICw8" version="24.4.13" type="device">
  <diagram name="Page-1" id="7a6c530e-6e37-e111-ec74-82921da8cc10">
    <mxGraphModel dx="4713.5" dy="1289" grid="1" gridSize="10" guides="1" tooltips="1" connect="1" arrows="1" fold="1" page="1" pageScale="1.5" pageWidth="1169" pageHeight="826" background="#184380" math="0" shadow="0">
      <root>
        <mxCell id="0" style=";html=1;" />
        <mxCell id="1" style=";html=1;" parent="0" />
        <mxCell id="23046e2b9bb16c14-27" value="" style="rounded=1;whiteSpace=wrap;html=1;shadow=0;strokeWidth=2;fillColor=#8BC63E;fontSize=12;fontColor=#000000;align=center;strokeColor=none;arcSize=3;" parent="1" vertex="1">
          <mxGeometry x="1492" y="269" width="1150" height="570" as="geometry" />
        </mxCell>
        <mxCell id="23046e2b9bb16c14-48" value="&lt;font style=&quot;font-size: 10px;&quot;&gt;EAST-IND REGION VNET&lt;/font&gt;" style="shadow=0;dashed=0;html=1;strokeColor=none;fillColor=#FFFFFF;labelPosition=center;verticalLabelPosition=bottom;verticalAlign=top;shape=mxgraph.office.clouds.azure;rounded=1;fontSize=12;fontColor=#FFFFFF;align=center;" parent="1" vertex="1">
          <mxGeometry x="2578" y="228.53" width="83" height="53" as="geometry" />
        </mxCell>
        <mxCell id="23046e2b9bb16c14-55" value="" style="rounded=1;whiteSpace=wrap;html=1;shadow=0;strokeWidth=2;fillColor=none;fontSize=12;fontColor=#000000;align=center;strokeColor=#FFFFFF;arcSize=9;" parent="1" vertex="1">
          <mxGeometry x="1906" y="416" width="236.5" height="241" as="geometry" />
        </mxCell>
        <mxCell id="23046e2b9bb16c14-56" value="&lt;font style=&quot;font-size: 10px;&quot;&gt;SUBNET-1&lt;/font&gt;" style="rounded=1;whiteSpace=wrap;html=1;shadow=0;strokeWidth=2;fillColor=none;fontSize=11;fontColor=#FFFFFF;align=center;strokeColor=#FFFFFF;dashed=1;verticalAlign=top;" parent="1" vertex="1">
          <mxGeometry x="1986" y="437" width="70" height="211" as="geometry" />
        </mxCell>
        <mxCell id="23046e2b9bb16c14-57" value="" style="shadow=0;dashed=0;html=1;strokeColor=none;shape=mxgraph.mscae.enterprise.lock;fillColor=#FFFFFF;rounded=0;fontSize=12;fontColor=#000000;align=center;" parent="1" vertex="1">
          <mxGeometry x="1926" y="432" width="39" height="50" as="geometry" />
        </mxCell>
        <mxCell id="23046e2b9bb16c14-59" value="" style="verticalLabelPosition=bottom;html=1;verticalAlign=top;strokeColor=none;fillColor=#FFFFFF;shape=mxgraph.azure.virtual_machine;rounded=1;shadow=0;fontSize=12;fontColor=#000000;align=center;" parent="1" vertex="1">
          <mxGeometry x="1996" y="489" width="50" height="40" as="geometry" />
        </mxCell>
        <mxCell id="23046e2b9bb16c14-60" value="" style="verticalLabelPosition=bottom;html=1;verticalAlign=top;strokeColor=none;fillColor=#FFFFFF;shape=mxgraph.azure.virtual_machine;rounded=1;shadow=0;fontSize=12;fontColor=#000000;align=center;" parent="1" vertex="1">
          <mxGeometry x="1996" y="542" width="50" height="40" as="geometry" />
        </mxCell>
        <mxCell id="23046e2b9bb16c14-61" value="" style="verticalLabelPosition=bottom;html=1;verticalAlign=top;strokeColor=none;fillColor=#FFFFFF;shape=mxgraph.azure.virtual_machine;rounded=1;shadow=0;fontSize=12;fontColor=#000000;align=center;" parent="1" vertex="1">
          <mxGeometry x="1996" y="594" width="50" height="40" as="geometry" />
        </mxCell>
        <mxCell id="fS-SIkq6SePZpKo5QlOM-1" value="" style="rounded=1;whiteSpace=wrap;html=1;shadow=0;strokeWidth=2;fillColor=#8BC63E;fontSize=12;fontColor=#000000;align=center;strokeColor=none;arcSize=3;" parent="1" vertex="1">
          <mxGeometry x="-950" y="250" width="1230" height="460" as="geometry" />
        </mxCell>
        <mxCell id="fS-SIkq6SePZpKo5QlOM-2" value="" style="rounded=1;whiteSpace=wrap;html=1;shadow=0;strokeWidth=2;fillColor=none;fontSize=12;fontColor=#000000;align=center;strokeColor=#FFFFFF;arcSize=10;" parent="1" vertex="1">
          <mxGeometry x="-723" y="420.79" width="250" height="241" as="geometry" />
        </mxCell>
        <mxCell id="fS-SIkq6SePZpKo5QlOM-3" value="&lt;font style=&quot;font-size: 10px;&quot;&gt;LLM-Subnet1&lt;/font&gt;" style="rounded=1;whiteSpace=wrap;html=1;shadow=0;strokeWidth=2;fillColor=none;fontSize=11;fontColor=#FFFFFF;align=center;strokeColor=#FFFFFF;dashed=1;verticalAlign=top;" parent="1" vertex="1">
          <mxGeometry x="-643" y="441.79" width="70" height="211" as="geometry" />
        </mxCell>
        <mxCell id="fS-SIkq6SePZpKo5QlOM-7" value="" style="shadow=0;dashed=0;html=1;strokeColor=none;shape=mxgraph.mscae.enterprise.lock;fillColor=#FFFFFF;rounded=0;fontSize=12;fontColor=#000000;align=center;" parent="1" vertex="1">
          <mxGeometry x="-703" y="436.79" width="39" height="50" as="geometry" />
        </mxCell>
        <mxCell id="fS-SIkq6SePZpKo5QlOM-10" value="" style="verticalLabelPosition=bottom;html=1;verticalAlign=top;strokeColor=none;fillColor=#FFFFFF;shape=mxgraph.azure.virtual_machine;rounded=1;shadow=0;fontSize=12;fontColor=#000000;align=center;" parent="1" vertex="1">
          <mxGeometry x="-633" y="493.79" width="50" height="40" as="geometry" />
        </mxCell>
        <mxCell id="fS-SIkq6SePZpKo5QlOM-12" value="" style="verticalLabelPosition=bottom;html=1;verticalAlign=top;strokeColor=none;fillColor=#FFFFFF;shape=mxgraph.azure.virtual_machine;rounded=1;shadow=0;fontSize=12;fontColor=#000000;align=center;" parent="1" vertex="1">
          <mxGeometry x="-633" y="546.7900000000001" width="50" height="40" as="geometry" />
        </mxCell>
        <mxCell id="fS-SIkq6SePZpKo5QlOM-14" value="" style="verticalLabelPosition=bottom;html=1;verticalAlign=top;strokeColor=none;fillColor=#FFFFFF;shape=mxgraph.azure.virtual_machine;rounded=1;shadow=0;fontSize=12;fontColor=#000000;align=center;" parent="1" vertex="1">
          <mxGeometry x="-633" y="598.7900000000001" width="50" height="40" as="geometry" />
        </mxCell>
        <mxCell id="fS-SIkq6SePZpKo5QlOM-15" value="&lt;font style=&quot;font-size: 10px;&quot;&gt;EAST-US REGION VNET&lt;/font&gt;" style="shadow=0;dashed=0;html=1;strokeColor=none;fillColor=#FFFFFF;labelPosition=center;verticalLabelPosition=bottom;verticalAlign=top;shape=mxgraph.office.clouds.azure;rounded=1;fontSize=12;fontColor=#FFFFFF;align=center;" parent="1" vertex="1">
          <mxGeometry x="-1010" y="216" width="83" height="53" as="geometry" />
        </mxCell>
        <mxCell id="fS-SIkq6SePZpKo5QlOM-16" value="" style="rounded=1;whiteSpace=wrap;html=1;shadow=0;strokeWidth=2;fillColor=none;fontSize=12;fontColor=#000000;align=center;strokeColor=#FFFFFF;arcSize=9;" parent="1" vertex="1">
          <mxGeometry x="-190" y="419" width="240" height="241" as="geometry" />
        </mxCell>
        <mxCell id="fS-SIkq6SePZpKo5QlOM-17" value="&lt;font style=&quot;font-size: 10px;&quot;&gt;LLM-Subnet2&lt;/font&gt;" style="rounded=1;whiteSpace=wrap;html=1;shadow=0;strokeWidth=2;fillColor=none;fontSize=11;fontColor=#FFFFFF;align=center;strokeColor=#FFFFFF;dashed=1;verticalAlign=top;" parent="1" vertex="1">
          <mxGeometry x="-110" y="440" width="70" height="211" as="geometry" />
        </mxCell>
        <mxCell id="fS-SIkq6SePZpKo5QlOM-18" value="" style="shadow=0;dashed=0;html=1;strokeColor=none;shape=mxgraph.mscae.enterprise.lock;fillColor=#FFFFFF;rounded=0;fontSize=12;fontColor=#000000;align=center;" parent="1" vertex="1">
          <mxGeometry x="-170" y="435" width="39" height="50" as="geometry" />
        </mxCell>
        <mxCell id="fS-SIkq6SePZpKo5QlOM-24" value="" style="verticalLabelPosition=bottom;html=1;verticalAlign=top;strokeColor=none;fillColor=#FFFFFF;shape=mxgraph.azure.virtual_machine;rounded=1;shadow=0;fontSize=12;fontColor=#000000;align=center;" parent="1" vertex="1">
          <mxGeometry x="-100" y="492" width="50" height="40" as="geometry" />
        </mxCell>
        <mxCell id="fS-SIkq6SePZpKo5QlOM-25" value="" style="verticalLabelPosition=bottom;html=1;verticalAlign=top;strokeColor=none;fillColor=#FFFFFF;shape=mxgraph.azure.virtual_machine;rounded=1;shadow=0;fontSize=12;fontColor=#000000;align=center;" parent="1" vertex="1">
          <mxGeometry x="-100" y="545" width="50" height="40" as="geometry" />
        </mxCell>
        <mxCell id="fS-SIkq6SePZpKo5QlOM-26" value="" style="verticalLabelPosition=bottom;html=1;verticalAlign=top;strokeColor=none;fillColor=#FFFFFF;shape=mxgraph.azure.virtual_machine;rounded=1;shadow=0;fontSize=12;fontColor=#000000;align=center;" parent="1" vertex="1">
          <mxGeometry x="-100" y="597" width="50" height="40" as="geometry" />
        </mxCell>
        <mxCell id="fS-SIkq6SePZpKo5QlOM-28" value="" style="rounded=1;whiteSpace=wrap;html=1;shadow=0;strokeWidth=2;fillColor=none;fontSize=12;fontColor=#000000;align=center;strokeColor=#FFFFFF;arcSize=10;" parent="1" vertex="1">
          <mxGeometry x="2397" y="417.93" width="230" height="241" as="geometry" />
        </mxCell>
        <mxCell id="fS-SIkq6SePZpKo5QlOM-29" value="&lt;font style=&quot;font-size: 10px;&quot;&gt;SUBNET-2&lt;/font&gt;" style="rounded=1;whiteSpace=wrap;html=1;shadow=0;strokeWidth=2;fillColor=none;fontSize=11;fontColor=#FFFFFF;align=center;strokeColor=#FFFFFF;dashed=1;verticalAlign=top;" parent="1" vertex="1">
          <mxGeometry x="2477" y="438.93" width="70" height="211" as="geometry" />
        </mxCell>
        <mxCell id="fS-SIkq6SePZpKo5QlOM-30" value="" style="shadow=0;dashed=0;html=1;strokeColor=none;shape=mxgraph.mscae.enterprise.lock;fillColor=#FFFFFF;rounded=0;fontSize=12;fontColor=#000000;align=center;" parent="1" vertex="1">
          <mxGeometry x="2417" y="433.93" width="39" height="50" as="geometry" />
        </mxCell>
        <mxCell id="fS-SIkq6SePZpKo5QlOM-33" value="" style="verticalLabelPosition=bottom;html=1;verticalAlign=top;strokeColor=none;fillColor=#FFFFFF;shape=mxgraph.azure.virtual_machine;rounded=1;shadow=0;fontSize=12;fontColor=#000000;align=center;" parent="1" vertex="1">
          <mxGeometry x="2487" y="490.93" width="50" height="40" as="geometry" />
        </mxCell>
        <mxCell id="fS-SIkq6SePZpKo5QlOM-35" value="" style="verticalLabelPosition=bottom;html=1;verticalAlign=top;strokeColor=none;fillColor=#FFFFFF;shape=mxgraph.azure.virtual_machine;rounded=1;shadow=0;fontSize=12;fontColor=#000000;align=center;" parent="1" vertex="1">
          <mxGeometry x="2487" y="543.93" width="50" height="40" as="geometry" />
        </mxCell>
        <mxCell id="fS-SIkq6SePZpKo5QlOM-37" value="" style="verticalLabelPosition=bottom;html=1;verticalAlign=top;strokeColor=none;fillColor=#FFFFFF;shape=mxgraph.azure.virtual_machine;rounded=1;shadow=0;fontSize=12;fontColor=#000000;align=center;" parent="1" vertex="1">
          <mxGeometry x="2487" y="595.93" width="50" height="40" as="geometry" />
        </mxCell>
        <mxCell id="fS-SIkq6SePZpKo5QlOM-39" value="&lt;font style=&quot;font-size: 10px;&quot;&gt;10.0.1.0/24&lt;/font&gt;" style="text;strokeColor=none;align=center;fillColor=none;html=1;verticalAlign=middle;whiteSpace=wrap;rounded=0;" parent="1" vertex="1">
          <mxGeometry x="-638" y="456.79" width="60" height="30" as="geometry" />
        </mxCell>
        <mxCell id="fS-SIkq6SePZpKo5QlOM-40" value="&lt;font style=&quot;font-size: 10px;&quot;&gt;10.0.2.0/24&lt;/font&gt;" style="text;strokeColor=none;align=center;fillColor=none;html=1;verticalAlign=middle;whiteSpace=wrap;rounded=0;" parent="1" vertex="1">
          <mxGeometry x="-105" y="455" width="60" height="30" as="geometry" />
        </mxCell>
        <mxCell id="fS-SIkq6SePZpKo5QlOM-41" value="&lt;font style=&quot;font-size: 10px;&quot;&gt;10.0.0.0/16&lt;/font&gt;" style="text;strokeColor=none;align=center;fillColor=none;html=1;verticalAlign=middle;whiteSpace=wrap;rounded=0;" parent="1" vertex="1">
          <mxGeometry x="-1010" y="279" width="60" height="30" as="geometry" />
        </mxCell>
        <mxCell id="fS-SIkq6SePZpKo5QlOM-43" value="&lt;font style=&quot;font-size: 10px;&quot;&gt;10.1.1.0/24&lt;/font&gt;" style="text;strokeColor=none;align=center;fillColor=none;html=1;verticalAlign=middle;whiteSpace=wrap;rounded=0;" parent="1" vertex="1">
          <mxGeometry x="1992.5" y="452" width="60" height="30" as="geometry" />
        </mxCell>
        <mxCell id="fS-SIkq6SePZpKo5QlOM-44" value="&lt;font style=&quot;font-size: 10px;&quot;&gt;10.1.2.0/24&lt;/font&gt;" style="text;strokeColor=none;align=center;fillColor=none;html=1;verticalAlign=middle;whiteSpace=wrap;rounded=0;" parent="1" vertex="1">
          <mxGeometry x="2482" y="453.93" width="60" height="30" as="geometry" />
        </mxCell>
        <mxCell id="fS-SIkq6SePZpKo5QlOM-45" value="&lt;font style=&quot;font-size: 10px;&quot;&gt;10.1.0.0/16&lt;/font&gt;" style="text;strokeColor=none;align=center;fillColor=none;html=1;verticalAlign=middle;whiteSpace=wrap;rounded=0;" parent="1" vertex="1">
          <mxGeometry x="2597" y="292.53" width="60" height="30" as="geometry" />
        </mxCell>
        <mxCell id="fS-SIkq6SePZpKo5QlOM-46" value="" style="image;aspect=fixed;html=1;points=[];align=center;fontSize=12;image=img/lib/azure2/networking/ExpressRoute_Circuits.svg;rotation=90;" parent="1" vertex="1">
          <mxGeometry x="835.5" y="501.56" width="83" height="75.89" as="geometry" />
        </mxCell>
        <mxCell id="fS-SIkq6SePZpKo5QlOM-47" value="" style="image;aspect=fixed;html=1;points=[];align=center;fontSize=12;image=img/lib/azure2/networking/Virtual_WANs.svg;" parent="1" vertex="1">
          <mxGeometry x="813" y="260" width="65" height="64" as="geometry" />
        </mxCell>
        <mxCell id="fS-SIkq6SePZpKo5QlOM-48" value="" style="image;aspect=fixed;html=1;points=[];align=center;fontSize=12;image=img/lib/azure2/networking/Virtual_WAN_Hub.svg;" parent="1" vertex="1">
          <mxGeometry x="720" y="324" width="65" height="64" as="geometry" />
        </mxCell>
        <mxCell id="fS-SIkq6SePZpKo5QlOM-49" value="" style="image;aspect=fixed;html=1;points=[];align=center;fontSize=12;image=img/lib/azure2/networking/Virtual_WAN_Hub.svg;" parent="1" vertex="1">
          <mxGeometry x="890" y="324" width="65" height="64" as="geometry" />
        </mxCell>
        <mxCell id="fS-SIkq6SePZpKo5QlOM-50" value="" style="image;aspect=fixed;html=1;points=[];align=center;fontSize=12;image=img/lib/azure2/networking/Virtual_Network_Gateways.svg;" parent="1" vertex="1">
          <mxGeometry x="140" y="511" width="52" height="69" as="geometry" />
        </mxCell>
        <mxCell id="fS-SIkq6SePZpKo5QlOM-51" value="" style="image;aspect=fixed;html=1;points=[];align=center;fontSize=12;image=img/lib/azure2/networking/Virtual_Network_Gateways.svg;" parent="1" vertex="1">
          <mxGeometry x="1590" y="521" width="52" height="69" as="geometry" />
        </mxCell>
        <mxCell id="fS-SIkq6SePZpKo5QlOM-52" value="&lt;font style=&quot;font-size: 9px;&quot;&gt;Virtual Network Gateway-1&lt;/font&gt;" style="text;strokeColor=none;align=center;fillColor=none;html=1;verticalAlign=middle;whiteSpace=wrap;rounded=0;" parent="1" vertex="1">
          <mxGeometry x="111" y="577.45" width="110" height="30" as="geometry" />
        </mxCell>
        <mxCell id="fS-SIkq6SePZpKo5QlOM-53" value="" style="rounded=1;whiteSpace=wrap;html=1;shadow=0;strokeWidth=2;fillColor=none;fontSize=12;fontColor=#000000;align=center;strokeColor=#FFFFFF;arcSize=9;" parent="1" vertex="1">
          <mxGeometry x="80" y="419" width="160" height="241" as="geometry" />
        </mxCell>
        <mxCell id="fS-SIkq6SePZpKo5QlOM-54" value="&lt;font style=&quot;font-size: 10px;&quot;&gt;Gateway Subnet-1&lt;/font&gt;" style="text;strokeColor=none;align=center;fillColor=none;html=1;verticalAlign=middle;whiteSpace=wrap;rounded=0;" parent="1" vertex="1">
          <mxGeometry x="80" y="419" width="100" height="30" as="geometry" />
        </mxCell>
        <mxCell id="fS-SIkq6SePZpKo5QlOM-55" value="&lt;font style=&quot;font-size: 10px;&quot;&gt;10.0.3.0/24&lt;/font&gt;" style="text;strokeColor=none;align=center;fillColor=none;html=1;verticalAlign=middle;whiteSpace=wrap;rounded=0;" parent="1" vertex="1">
          <mxGeometry x="100" y="430" width="60" height="30" as="geometry" />
        </mxCell>
        <mxCell id="fS-SIkq6SePZpKo5QlOM-56" value="&lt;font style=&quot;font-size: 9px;&quot;&gt;Virtual Network Gateway-2&lt;/font&gt;" style="text;strokeColor=none;align=center;fillColor=none;html=1;verticalAlign=middle;whiteSpace=wrap;rounded=0;" parent="1" vertex="1">
          <mxGeometry x="1556" y="580" width="120" height="30" as="geometry" />
        </mxCell>
        <mxCell id="fS-SIkq6SePZpKo5QlOM-57" value="" style="rounded=1;whiteSpace=wrap;html=1;shadow=0;strokeWidth=2;fillColor=none;fontSize=12;fontColor=#000000;align=center;strokeColor=#FFFFFF;arcSize=9;" parent="1" vertex="1">
          <mxGeometry x="1540" y="419" width="160" height="241" as="geometry" />
        </mxCell>
        <mxCell id="fS-SIkq6SePZpKo5QlOM-58" value="&lt;font style=&quot;font-size: 10px;&quot;&gt;Gateway Subnet-2&lt;/font&gt;" style="text;strokeColor=none;align=center;fillColor=none;html=1;verticalAlign=middle;whiteSpace=wrap;rounded=0;" parent="1" vertex="1">
          <mxGeometry x="1610" y="419" width="90" height="30" as="geometry" />
        </mxCell>
        <mxCell id="fS-SIkq6SePZpKo5QlOM-59" value="&lt;font style=&quot;font-size: 10px;&quot;&gt;10.1.3.0/24&lt;/font&gt;" style="text;strokeColor=none;align=center;fillColor=none;html=1;verticalAlign=middle;whiteSpace=wrap;rounded=0;" parent="1" vertex="1">
          <mxGeometry x="1625" y="430" width="60" height="30" as="geometry" />
        </mxCell>
        <mxCell id="fS-SIkq6SePZpKo5QlOM-61" value="" style="endArrow=none;dashed=1;html=1;rounded=0;" parent="1" edge="1">
          <mxGeometry width="50" height="50" relative="1" as="geometry">
            <mxPoint x="700" y="419" as="sourcePoint" />
            <mxPoint x="700" y="249" as="targetPoint" />
          </mxGeometry>
        </mxCell>
        <mxCell id="fS-SIkq6SePZpKo5QlOM-62" value="" style="endArrow=none;dashed=1;html=1;rounded=0;" parent="1" edge="1">
          <mxGeometry width="50" height="50" relative="1" as="geometry">
            <mxPoint x="700" y="250" as="sourcePoint" />
            <mxPoint x="980" y="250" as="targetPoint" />
          </mxGeometry>
        </mxCell>
        <mxCell id="fS-SIkq6SePZpKo5QlOM-64" value="" style="endArrow=none;dashed=1;html=1;rounded=0;" parent="1" edge="1">
          <mxGeometry width="50" height="50" relative="1" as="geometry">
            <mxPoint x="980" y="419" as="sourcePoint" />
            <mxPoint x="980" y="249" as="targetPoint" />
          </mxGeometry>
        </mxCell>
        <mxCell id="fS-SIkq6SePZpKo5QlOM-65" value="" style="endArrow=none;dashed=1;html=1;rounded=0;" parent="1" edge="1">
          <mxGeometry width="50" height="50" relative="1" as="geometry">
            <mxPoint x="700" y="420" as="sourcePoint" />
            <mxPoint x="980" y="420" as="targetPoint" />
          </mxGeometry>
        </mxCell>
        <mxCell id="fS-SIkq6SePZpKo5QlOM-66" value="&lt;font style=&quot;font-size: 10px;&quot;&gt;Virtual WAN&lt;/font&gt;" style="text;strokeColor=none;align=center;fillColor=none;html=1;verticalAlign=middle;whiteSpace=wrap;rounded=0;" parent="1" vertex="1">
          <mxGeometry x="813" y="320" width="60" height="30" as="geometry" />
        </mxCell>
        <mxCell id="fS-SIkq6SePZpKo5QlOM-67" value="&lt;font style=&quot;font-size: 10px;&quot;&gt;East-US HUB&lt;/font&gt;" style="text;strokeColor=none;align=center;fillColor=none;html=1;verticalAlign=middle;whiteSpace=wrap;rounded=0;" parent="1" vertex="1">
          <mxGeometry x="712.5" y="380" width="80" height="30" as="geometry" />
        </mxCell>
        <mxCell id="fS-SIkq6SePZpKo5QlOM-68" value="&lt;font style=&quot;font-size: 10px;&quot;&gt;East-IND HUB&lt;/font&gt;" style="text;strokeColor=none;align=center;fillColor=none;html=1;verticalAlign=middle;whiteSpace=wrap;rounded=0;" parent="1" vertex="1">
          <mxGeometry x="872.5" y="380" width="100" height="30" as="geometry" />
        </mxCell>
        <mxCell id="fS-SIkq6SePZpKo5QlOM-69" value="" style="endArrow=none;dashed=1;html=1;dashPattern=1 3;strokeWidth=3;rounded=0;exitX=1.003;exitY=0.866;exitDx=0;exitDy=0;exitPerimeter=0;" parent="1" source="fS-SIkq6SePZpKo5QlOM-1" edge="1">
          <mxGeometry width="50" height="50" relative="1" as="geometry">
            <mxPoint x="340" y="440" as="sourcePoint" />
            <mxPoint x="700" y="360" as="targetPoint" />
          </mxGeometry>
        </mxCell>
        <mxCell id="fS-SIkq6SePZpKo5QlOM-70" value="" style="endArrow=none;dashed=1;html=1;dashPattern=1 3;strokeWidth=3;rounded=0;exitX=-0.003;exitY=0.874;exitDx=0;exitDy=0;exitPerimeter=0;" parent="1" source="23046e2b9bb16c14-27" edge="1">
          <mxGeometry width="50" height="50" relative="1" as="geometry">
            <mxPoint x="1260" y="440" as="sourcePoint" />
            <mxPoint x="980" y="360" as="targetPoint" />
          </mxGeometry>
        </mxCell>
        <mxCell id="fS-SIkq6SePZpKo5QlOM-71" value="" style="endArrow=none;dashed=1;html=1;rounded=0;entryX=0.488;entryY=0.998;entryDx=0;entryDy=0;entryPerimeter=0;exitX=1.012;exitY=0.587;exitDx=0;exitDy=0;exitPerimeter=0;strokeWidth=2;" parent="1" source="fS-SIkq6SePZpKo5QlOM-53" target="fS-SIkq6SePZpKo5QlOM-46" edge="1">
          <mxGeometry width="50" height="50" relative="1" as="geometry">
            <mxPoint x="480" y="670" as="sourcePoint" />
            <mxPoint x="530" y="620" as="targetPoint" />
          </mxGeometry>
        </mxCell>
        <mxCell id="fS-SIkq6SePZpKo5QlOM-72" value="" style="endArrow=none;dashed=1;html=1;rounded=0;entryX=0.015;entryY=0.544;entryDx=0;entryDy=0;entryPerimeter=0;exitX=0.5;exitY=0.065;exitDx=0;exitDy=0;exitPerimeter=0;strokeWidth=2;" parent="1" source="fS-SIkq6SePZpKo5QlOM-46" target="fS-SIkq6SePZpKo5QlOM-57" edge="1">
          <mxGeometry width="50" height="50" relative="1" as="geometry">
            <mxPoint x="1130" y="620" as="sourcePoint" />
            <mxPoint x="1180" y="570" as="targetPoint" />
          </mxGeometry>
        </mxCell>
        <mxCell id="fS-SIkq6SePZpKo5QlOM-73" value="" style="endArrow=none;dashed=1;html=1;dashPattern=1 3;strokeWidth=2;rounded=0;exitX=0.817;exitY=1.011;exitDx=0;exitDy=0;exitPerimeter=0;" parent="1" source="fS-SIkq6SePZpKo5QlOM-46" edge="1">
          <mxGeometry width="50" height="50" relative="1" as="geometry">
            <mxPoint x="792.5" y="509" as="sourcePoint" />
            <mxPoint x="742.5" y="419" as="targetPoint" />
          </mxGeometry>
        </mxCell>
        <mxCell id="fS-SIkq6SePZpKo5QlOM-74" value="" style="endArrow=none;dashed=1;html=1;dashPattern=1 3;strokeWidth=2;rounded=0;" parent="1" edge="1">
          <mxGeometry width="50" height="50" relative="1" as="geometry">
            <mxPoint x="860" y="570" as="sourcePoint" />
            <mxPoint x="940" y="420" as="targetPoint" />
          </mxGeometry>
        </mxCell>
        <mxCell id="fS-SIkq6SePZpKo5QlOM-75" value="&lt;font style=&quot;font-size: 10px;&quot;&gt;ExpressRoute Circuit&lt;/font&gt;" style="text;strokeColor=none;align=center;fillColor=none;html=1;verticalAlign=middle;whiteSpace=wrap;rounded=0;" parent="1" vertex="1">
          <mxGeometry x="813" y="577.45" width="124.5" height="30" as="geometry" />
        </mxCell>
        <mxCell id="fS-SIkq6SePZpKo5QlOM-76" value="" style="image;aspect=fixed;html=1;points=[];align=center;fontSize=12;image=img/lib/azure2/other/Private_Endpoints.svg;" parent="1" vertex="1">
          <mxGeometry x="-533" y="538.2600000000001" width="40" height="38.05" as="geometry" />
        </mxCell>
        <mxCell id="fS-SIkq6SePZpKo5QlOM-77" value="" style="image;aspect=fixed;html=1;points=[];align=center;fontSize=12;image=img/lib/azure2/other/Private_Endpoints.svg;" parent="1" vertex="1">
          <mxGeometry x="0.5" y="537.4200000000001" width="38" height="36.15" as="geometry" />
        </mxCell>
        <mxCell id="fS-SIkq6SePZpKo5QlOM-78" value="" style="image;aspect=fixed;html=1;points=[];align=center;fontSize=12;image=img/lib/azure2/other/Private_Endpoints.svg;" parent="1" vertex="1">
          <mxGeometry x="2092" y="537" width="28" height="26.63" as="geometry" />
        </mxCell>
        <mxCell id="fS-SIkq6SePZpKo5QlOM-79" value="" style="image;aspect=fixed;html=1;points=[];align=center;fontSize=12;image=img/lib/azure2/other/Private_Endpoints.svg;" parent="1" vertex="1">
          <mxGeometry x="2578" y="538.93" width="28" height="26.63" as="geometry" />
        </mxCell>
        <mxCell id="fS-SIkq6SePZpKo5QlOM-80" value="&lt;font style=&quot;font-size: 9px;&quot;&gt;Private-Endpoint&amp;nbsp;&lt;/font&gt;&lt;div&gt;&lt;font style=&quot;font-size: 9px;&quot;&gt;for LLM1&lt;/font&gt;&lt;/div&gt;" style="text;strokeColor=none;align=center;fillColor=none;html=1;verticalAlign=middle;whiteSpace=wrap;rounded=0;" parent="1" vertex="1">
          <mxGeometry x="-568" y="575.3600000000001" width="110" height="30" as="geometry" />
        </mxCell>
        <mxCell id="fS-SIkq6SePZpKo5QlOM-81" value="&lt;font style=&quot;font-size: 9px;&quot;&gt;Private-Endpoint&amp;nbsp;&lt;/font&gt;&lt;div&gt;&lt;font style=&quot;font-size: 9px;&quot;&gt;for LLM2&lt;/font&gt;&lt;/div&gt;" style="text;strokeColor=none;align=center;fillColor=none;html=1;verticalAlign=middle;whiteSpace=wrap;rounded=0;" parent="1" vertex="1">
          <mxGeometry x="-40" y="573.57" width="110" height="30" as="geometry" />
        </mxCell>
        <mxCell id="fS-SIkq6SePZpKo5QlOM-82" value="&lt;font style=&quot;font-size: 9px;&quot;&gt;Private-Endpoint&lt;/font&gt;&lt;div&gt;&lt;font style=&quot;font-size: 9px;&quot;&gt;&amp;nbsp;to LLM1&lt;/font&gt;&lt;/div&gt;" style="text;strokeColor=none;align=center;fillColor=none;html=1;verticalAlign=middle;whiteSpace=wrap;rounded=0;" parent="1" vertex="1">
          <mxGeometry x="2056" y="563.63" width="100" height="30" as="geometry" />
        </mxCell>
        <mxCell id="fS-SIkq6SePZpKo5QlOM-83" value="&lt;font style=&quot;font-size: 9px;&quot;&gt;Private-Endpoint&lt;/font&gt;&lt;div&gt;&lt;font style=&quot;font-size: 9px;&quot;&gt;&amp;nbsp;to LLM2&lt;/font&gt;&lt;/div&gt;" style="text;strokeColor=none;align=center;fillColor=none;html=1;verticalAlign=middle;whiteSpace=wrap;rounded=0;" parent="1" vertex="1">
          <mxGeometry x="2542" y="565.93" width="100" height="30" as="geometry" />
        </mxCell>
        <mxCell id="fS-SIkq6SePZpKo5QlOM-84" value="" style="endArrow=classic;startArrow=classic;html=1;rounded=0;entryX=0.057;entryY=0.739;entryDx=0;entryDy=0;entryPerimeter=0;exitX=1.004;exitY=0.57;exitDx=0;exitDy=0;exitPerimeter=0;" parent="1" source="23046e2b9bb16c14-56" target="fS-SIkq6SePZpKo5QlOM-78" edge="1">
          <mxGeometry width="50" height="50" relative="1" as="geometry">
            <mxPoint x="2056" y="552.0699999999999" as="sourcePoint" />
            <mxPoint x="2092.5" y="552.0699999999999" as="targetPoint" />
          </mxGeometry>
        </mxCell>
        <mxCell id="fS-SIkq6SePZpKo5QlOM-85" value="" style="endArrow=classic;startArrow=classic;html=1;rounded=0;entryX=0.043;entryY=0.702;entryDx=0;entryDy=0;entryPerimeter=0;exitX=1.009;exitY=0.565;exitDx=0;exitDy=0;exitPerimeter=0;" parent="1" source="fS-SIkq6SePZpKo5QlOM-29" target="fS-SIkq6SePZpKo5QlOM-79" edge="1">
          <mxGeometry width="50" height="50" relative="1" as="geometry">
            <mxPoint x="2547.0000000000005" y="563.8" as="sourcePoint" />
            <mxPoint x="2584.0000000000005" y="563.8" as="targetPoint" />
          </mxGeometry>
        </mxCell>
        <mxCell id="fS-SIkq6SePZpKo5QlOM-86" value="&lt;font style=&quot;font-size: 6px;&quot;&gt;Private IP&lt;/font&gt;" style="text;strokeColor=none;align=center;fillColor=none;html=1;verticalAlign=middle;whiteSpace=wrap;rounded=0;" parent="1" vertex="1">
          <mxGeometry x="2046" y="534" width="60" height="30" as="geometry" />
        </mxCell>
        <mxCell id="fS-SIkq6SePZpKo5QlOM-87" value="&lt;font style=&quot;font-size: 6px;&quot;&gt;Private IP&lt;/font&gt;" style="text;strokeColor=none;align=center;fillColor=none;html=1;verticalAlign=middle;whiteSpace=wrap;rounded=0;" parent="1" vertex="1">
          <mxGeometry x="2537" y="535.4" width="60" height="30" as="geometry" />
        </mxCell>
        <mxCell id="fS-SIkq6SePZpKo5QlOM-89" value="" style="endArrow=classic;startArrow=classic;html=1;rounded=0;entryX=0.033;entryY=0.715;entryDx=0;entryDy=0;entryPerimeter=0;exitX=0.998;exitY=0.584;exitDx=0;exitDy=0;exitPerimeter=0;" parent="1" source="fS-SIkq6SePZpKo5QlOM-3" target="fS-SIkq6SePZpKo5QlOM-76" edge="1">
          <mxGeometry width="50" height="50" relative="1" as="geometry">
            <mxPoint x="-573" y="561.7900000000001" as="sourcePoint" />
            <mxPoint x="-528" y="566.3900000000001" as="targetPoint" />
          </mxGeometry>
        </mxCell>
        <mxCell id="fS-SIkq6SePZpKo5QlOM-90" value="" style="endArrow=classic;startArrow=classic;html=1;rounded=0;entryX=0.033;entryY=0.715;entryDx=0;entryDy=0;entryPerimeter=0;exitX=0.998;exitY=0.584;exitDx=0;exitDy=0;exitPerimeter=0;" parent="1" edge="1">
          <mxGeometry width="50" height="50" relative="1" as="geometry">
            <mxPoint x="-39.860000000000014" y="563" as="sourcePoint" />
            <mxPoint x="1.1399999999999864" y="564" as="targetPoint" />
          </mxGeometry>
        </mxCell>
        <mxCell id="fS-SIkq6SePZpKo5QlOM-91" value="&lt;font style=&quot;font-size: 6px;&quot;&gt;Private IP&lt;/font&gt;" style="text;strokeColor=none;align=center;fillColor=none;html=1;verticalAlign=middle;whiteSpace=wrap;rounded=0;" parent="1" vertex="1">
          <mxGeometry x="-583" y="542.2900000000001" width="60" height="30" as="geometry" />
        </mxCell>
        <mxCell id="fS-SIkq6SePZpKo5QlOM-92" value="&lt;font style=&quot;font-size: 6px;&quot;&gt;Private IP&lt;/font&gt;" style="text;strokeColor=none;align=center;fillColor=none;html=1;verticalAlign=middle;whiteSpace=wrap;rounded=0;" parent="1" vertex="1">
          <mxGeometry x="-50" y="540.5" width="60" height="30" as="geometry" />
        </mxCell>
        <mxCell id="fS-SIkq6SePZpKo5QlOM-93" value="" style="endArrow=none;dashed=1;html=1;rounded=0;entryX=0.5;entryY=1;entryDx=0;entryDy=0;" parent="1" target="fS-SIkq6SePZpKo5QlOM-80" edge="1">
          <mxGeometry width="50" height="50" relative="1" as="geometry">
            <mxPoint x="-270" y="830" as="sourcePoint" />
            <mxPoint x="-170" y="770" as="targetPoint" />
          </mxGeometry>
        </mxCell>
        <mxCell id="fS-SIkq6SePZpKo5QlOM-94" value="" style="endArrow=none;dashed=1;html=1;rounded=0;" parent="1" edge="1">
          <mxGeometry width="50" height="50" relative="1" as="geometry">
            <mxPoint x="-270" y="830" as="sourcePoint" />
            <mxPoint x="1950" y="830" as="targetPoint" />
          </mxGeometry>
        </mxCell>
        <mxCell id="fS-SIkq6SePZpKo5QlOM-95" value="" style="endArrow=none;dashed=1;html=1;rounded=0;entryX=0.5;entryY=1;entryDx=0;entryDy=0;" parent="1" target="fS-SIkq6SePZpKo5QlOM-82" edge="1">
          <mxGeometry width="50" height="50" relative="1" as="geometry">
            <mxPoint x="1954" y="830" as="sourcePoint" />
            <mxPoint x="1950" y="740" as="targetPoint" />
          </mxGeometry>
        </mxCell>
        <mxCell id="fS-SIkq6SePZpKo5QlOM-96" value="" style="endArrow=none;dashed=1;html=1;rounded=0;" parent="1" edge="1">
          <mxGeometry width="50" height="50" relative="1" as="geometry">
            <mxPoint x="1933.5" y="830" as="sourcePoint" />
            <mxPoint x="1943.5" y="830" as="targetPoint" />
            <Array as="points">
              <mxPoint x="1943.5" y="830" />
              <mxPoint x="1953.5" y="830" />
            </Array>
          </mxGeometry>
        </mxCell>
        <mxCell id="fS-SIkq6SePZpKo5QlOM-97" value="" style="endArrow=none;dashed=1;html=1;rounded=0;entryX=0.561;entryY=1.103;entryDx=0;entryDy=0;entryPerimeter=0;" parent="1" target="fS-SIkq6SePZpKo5QlOM-81" edge="1">
          <mxGeometry width="50" height="50" relative="1" as="geometry">
            <mxPoint x="22" y="770" as="sourcePoint" />
            <mxPoint x="80" y="730" as="targetPoint" />
          </mxGeometry>
        </mxCell>
        <mxCell id="fS-SIkq6SePZpKo5QlOM-98" value="" style="endArrow=none;dashed=1;html=1;rounded=0;" parent="1" edge="1">
          <mxGeometry width="50" height="50" relative="1" as="geometry">
            <mxPoint x="20" y="770" as="sourcePoint" />
            <mxPoint x="2230" y="770" as="targetPoint" />
          </mxGeometry>
        </mxCell>
        <mxCell id="fS-SIkq6SePZpKo5QlOM-99" value="" style="endArrow=none;dashed=1;html=1;rounded=0;entryX=0.5;entryY=1;entryDx=0;entryDy=0;" parent="1" target="fS-SIkq6SePZpKo5QlOM-83" edge="1">
          <mxGeometry width="50" height="50" relative="1" as="geometry">
            <mxPoint x="2235" y="770" as="sourcePoint" />
            <mxPoint x="2270" y="750" as="targetPoint" />
          </mxGeometry>
        </mxCell>
        <mxCell id="fS-SIkq6SePZpKo5QlOM-108" value="" style="image;aspect=fixed;html=1;points=[];align=center;fontSize=12;image=img/lib/azure2/networking/Network_Security_Groups.svg;" parent="1" vertex="1">
          <mxGeometry x="-729" y="405.22" width="26" height="31.57" as="geometry" />
        </mxCell>
        <mxCell id="fS-SIkq6SePZpKo5QlOM-109" value="" style="image;aspect=fixed;html=1;points=[];align=center;fontSize=12;image=img/lib/azure2/networking/Network_Security_Groups.svg;" parent="1" vertex="1">
          <mxGeometry x="-200" y="403.43" width="26" height="31.57" as="geometry" />
        </mxCell>
        <mxCell id="fS-SIkq6SePZpKo5QlOM-110" value="&lt;font style=&quot;font-size: 9px;&quot;&gt;NSG-1&lt;/font&gt;" style="text;strokeColor=none;align=center;fillColor=none;html=1;verticalAlign=middle;whiteSpace=wrap;rounded=0;" parent="1" vertex="1">
          <mxGeometry x="-723" y="388.93" width="60" height="30" as="geometry" />
        </mxCell>
        <mxCell id="fS-SIkq6SePZpKo5QlOM-111" value="&lt;font style=&quot;font-size: 9px;&quot;&gt;NSG-2&lt;/font&gt;" style="text;strokeColor=none;align=center;fillColor=none;html=1;verticalAlign=middle;whiteSpace=wrap;rounded=0;" parent="1" vertex="1">
          <mxGeometry x="-191" y="389" width="60" height="30" as="geometry" />
        </mxCell>
        <mxCell id="fS-SIkq6SePZpKo5QlOM-112" value="" style="image;aspect=fixed;html=1;points=[];align=center;fontSize=12;image=img/lib/azure2/networking/Network_Security_Groups.svg;" parent="1" vertex="1">
          <mxGeometry x="1900" y="400.43" width="26" height="31.57" as="geometry" />
        </mxCell>
        <mxCell id="fS-SIkq6SePZpKo5QlOM-113" value="" style="image;aspect=fixed;html=1;points=[];align=center;fontSize=12;image=img/lib/azure2/networking/Network_Security_Groups.svg;" parent="1" vertex="1">
          <mxGeometry x="2391" y="402.36" width="26" height="31.57" as="geometry" />
        </mxCell>
        <mxCell id="fS-SIkq6SePZpKo5QlOM-114" value="&lt;font style=&quot;font-size: 9px;&quot;&gt;NSG-1&lt;/font&gt;" style="text;strokeColor=none;align=center;fillColor=none;html=1;verticalAlign=middle;whiteSpace=wrap;rounded=0;" parent="1" vertex="1">
          <mxGeometry x="1906" y="388" width="60" height="30" as="geometry" />
        </mxCell>
        <mxCell id="fS-SIkq6SePZpKo5QlOM-115" value="&lt;font style=&quot;font-size: 9px;&quot;&gt;NSG-2&lt;/font&gt;" style="text;strokeColor=none;align=center;fillColor=none;html=1;verticalAlign=middle;whiteSpace=wrap;rounded=0;" parent="1" vertex="1">
          <mxGeometry x="2397" y="386.93" width="60" height="30" as="geometry" />
        </mxCell>
        <mxCell id="fS-SIkq6SePZpKo5QlOM-116" value="" style="image;aspect=fixed;html=1;points=[];align=center;fontSize=12;image=img/lib/azure2/networking/Firewalls.svg;" parent="1" vertex="1">
          <mxGeometry x="230" y="306.9" width="51" height="43.1" as="geometry" />
        </mxCell>
        <mxCell id="fS-SIkq6SePZpKo5QlOM-117" value="" style="endArrow=none;dashed=1;html=1;dashPattern=1 3;strokeWidth=2;rounded=0;entryX=-0.067;entryY=0.562;entryDx=0;entryDy=0;entryPerimeter=0;exitX=0.5;exitY=0;exitDx=0;exitDy=0;" parent="1" source="fS-SIkq6SePZpKo5QlOM-2" target="fS-SIkq6SePZpKo5QlOM-116" edge="1">
          <mxGeometry width="50" height="50" relative="1" as="geometry">
            <mxPoint x="20" y="380" as="sourcePoint" />
            <mxPoint x="70" y="330" as="targetPoint" />
          </mxGeometry>
        </mxCell>
        <mxCell id="fS-SIkq6SePZpKo5QlOM-118" value="" style="endArrow=none;dashed=1;html=1;dashPattern=1 3;strokeWidth=2;rounded=0;entryX=-0.005;entryY=0.659;entryDx=0;entryDy=0;entryPerimeter=0;exitX=0.5;exitY=0;exitDx=0;exitDy=0;" parent="1" source="fS-SIkq6SePZpKo5QlOM-16" target="fS-SIkq6SePZpKo5QlOM-116" edge="1">
          <mxGeometry width="50" height="50" relative="1" as="geometry">
            <mxPoint x="150" y="400" as="sourcePoint" />
            <mxPoint x="200" y="350" as="targetPoint" />
          </mxGeometry>
        </mxCell>
        <mxCell id="fS-SIkq6SePZpKo5QlOM-119" value="" style="outlineConnect=0;dashed=0;verticalLabelPosition=bottom;verticalAlign=top;align=center;html=1;shape=mxgraph.aws3.internet_3;fillColor=#D2D3D3;gradientColor=none;" parent="1" vertex="1">
          <mxGeometry x="360" y="306.9" width="49.5" height="36" as="geometry" />
        </mxCell>
        <mxCell id="fS-SIkq6SePZpKo5QlOM-120" value="" style="endArrow=classic;startArrow=classic;html=1;rounded=0;entryX=0;entryY=0.7;entryDx=0;entryDy=0;entryPerimeter=0;exitX=0.971;exitY=0.529;exitDx=0;exitDy=0;exitPerimeter=0;" parent="1" source="fS-SIkq6SePZpKo5QlOM-116" target="fS-SIkq6SePZpKo5QlOM-119" edge="1">
          <mxGeometry width="50" height="50" relative="1" as="geometry">
            <mxPoint x="290" y="328.26" as="sourcePoint" />
            <mxPoint x="370" y="329" as="targetPoint" />
          </mxGeometry>
        </mxCell>
        <mxCell id="fS-SIkq6SePZpKo5QlOM-121" value="&lt;font style=&quot;font-size: 9px;&quot;&gt;Firewall&lt;/font&gt;" style="text;strokeColor=none;align=center;fillColor=none;html=1;verticalAlign=middle;whiteSpace=wrap;rounded=0;" parent="1" vertex="1">
          <mxGeometry x="225.5" y="341" width="60" height="30" as="geometry" />
        </mxCell>
        <mxCell id="fS-SIkq6SePZpKo5QlOM-122" value="&lt;font style=&quot;font-size: 9px;&quot;&gt;External Traffic&lt;/font&gt;" style="text;strokeColor=none;align=center;fillColor=none;html=1;verticalAlign=middle;whiteSpace=wrap;rounded=0;" parent="1" vertex="1">
          <mxGeometry x="344.75" y="330" width="80" height="30" as="geometry" />
        </mxCell>
        <mxCell id="fS-SIkq6SePZpKo5QlOM-123" value="&lt;font style=&quot;font-size: 9px;&quot;&gt;Filtering Traffic&lt;/font&gt;&lt;span style=&quot;font-size: 9px; background-color: initial;&quot;&gt;&amp;nbsp;&lt;/span&gt;" style="text;strokeColor=none;align=center;fillColor=none;html=1;verticalAlign=middle;whiteSpace=wrap;rounded=0;rotation=-5;" parent="1" vertex="1">
          <mxGeometry x="30" y="324" width="100" height="30" as="geometry" />
        </mxCell>
        <mxCell id="fS-SIkq6SePZpKo5QlOM-124" value="&lt;font style=&quot;font-size: 9px;&quot;&gt;Filtering Traffic&lt;/font&gt;&lt;span style=&quot;font-size: 9px; background-color: initial;&quot;&gt;&amp;nbsp;&lt;/span&gt;" style="text;strokeColor=none;align=center;fillColor=none;html=1;verticalAlign=middle;whiteSpace=wrap;rounded=0;rotation=-15;" parent="1" vertex="1">
          <mxGeometry x="38.5" y="350" width="100" height="30" as="geometry" />
        </mxCell>
        <mxCell id="fS-SIkq6SePZpKo5QlOM-125" value="" style="image;aspect=fixed;html=1;points=[];align=center;fontSize=12;image=img/lib/azure2/networking/Firewalls.svg;" parent="1" vertex="1">
          <mxGeometry x="1464.5" y="306.9" width="51" height="43.1" as="geometry" />
        </mxCell>
        <mxCell id="fS-SIkq6SePZpKo5QlOM-126" value="" style="outlineConnect=0;dashed=0;verticalLabelPosition=bottom;verticalAlign=top;align=center;html=1;shape=mxgraph.aws3.internet_3;fillColor=#D2D3D3;gradientColor=none;" parent="1" vertex="1">
          <mxGeometry x="1325.25" y="306.9" width="49.5" height="36" as="geometry" />
        </mxCell>
        <mxCell id="fS-SIkq6SePZpKo5QlOM-128" value="&lt;font style=&quot;font-size: 9px;&quot;&gt;Firewall&lt;/font&gt;" style="text;strokeColor=none;align=center;fillColor=none;html=1;verticalAlign=middle;whiteSpace=wrap;rounded=0;" parent="1" vertex="1">
          <mxGeometry x="1460" y="341" width="60" height="30" as="geometry" />
        </mxCell>
        <mxCell id="fS-SIkq6SePZpKo5QlOM-129" value="&lt;font style=&quot;font-size: 9px;&quot;&gt;External Traffic&lt;/font&gt;" style="text;strokeColor=none;align=center;fillColor=none;html=1;verticalAlign=middle;whiteSpace=wrap;rounded=0;" parent="1" vertex="1">
          <mxGeometry x="1310" y="330" width="80" height="30" as="geometry" />
        </mxCell>
        <mxCell id="fS-SIkq6SePZpKo5QlOM-130" value="" style="endArrow=classic;startArrow=classic;html=1;rounded=0;entryX=-0.027;entryY=0.574;entryDx=0;entryDy=0;entryPerimeter=0;exitX=0.808;exitY=0.014;exitDx=0;exitDy=0;exitPerimeter=0;" parent="1" source="fS-SIkq6SePZpKo5QlOM-129" target="fS-SIkq6SePZpKo5QlOM-125" edge="1">
          <mxGeometry width="50" height="50" relative="1" as="geometry">
            <mxPoint x="1400" y="337.7" as="sourcePoint" />
            <mxPoint x="1460" y="337.7" as="targetPoint" />
          </mxGeometry>
        </mxCell>
        <mxCell id="fS-SIkq6SePZpKo5QlOM-131" value="" style="endArrow=none;dashed=1;html=1;dashPattern=1 3;strokeWidth=2;rounded=0;entryX=1.019;entryY=0.574;entryDx=0;entryDy=0;entryPerimeter=0;exitX=0.5;exitY=0;exitDx=0;exitDy=0;" parent="1" source="23046e2b9bb16c14-55" target="fS-SIkq6SePZpKo5QlOM-125" edge="1">
          <mxGeometry width="50" height="50" relative="1" as="geometry">
            <mxPoint x="1591" y="381" as="sourcePoint" />
            <mxPoint x="1641" y="331" as="targetPoint" />
          </mxGeometry>
        </mxCell>
        <mxCell id="fS-SIkq6SePZpKo5QlOM-132" value="" style="endArrow=none;dashed=1;html=1;dashPattern=1 3;strokeWidth=2;rounded=0;entryX=1.055;entryY=0.546;entryDx=0;entryDy=0;entryPerimeter=0;exitX=0.5;exitY=0;exitDx=0;exitDy=0;" parent="1" source="fS-SIkq6SePZpKo5QlOM-28" target="fS-SIkq6SePZpKo5QlOM-125" edge="1">
          <mxGeometry width="50" height="50" relative="1" as="geometry">
            <mxPoint x="1760" y="360" as="sourcePoint" />
            <mxPoint x="1810" y="310" as="targetPoint" />
          </mxGeometry>
        </mxCell>
        <mxCell id="fS-SIkq6SePZpKo5QlOM-133" value="&lt;font style=&quot;font-size: 9px;&quot;&gt;Filtering Traffic&lt;/font&gt;" style="text;strokeColor=none;align=center;fillColor=none;html=1;verticalAlign=middle;whiteSpace=wrap;rounded=0;rotation=10;" parent="1" vertex="1">
          <mxGeometry x="1700" y="330" width="90" height="30" as="geometry" />
        </mxCell>
        <mxCell id="fS-SIkq6SePZpKo5QlOM-135" value="&lt;font style=&quot;font-size: 9px;&quot;&gt;Filtering Traffic&lt;/font&gt;" style="text;strokeColor=none;align=center;fillColor=none;html=1;verticalAlign=middle;whiteSpace=wrap;rounded=0;rotation=10;" parent="1" vertex="1">
          <mxGeometry x="1693" y="360" width="90" height="30" as="geometry" />
        </mxCell>
        <mxCell id="fS-SIkq6SePZpKo5QlOM-143" value="" style="image;aspect=fixed;html=1;points=[];align=center;fontSize=12;image=img/lib/azure2/networking/Application_Gateways.svg;direction=south;" parent="1" vertex="1">
          <mxGeometry x="-843.5" y="547.7900000000001" width="64" height="64" as="geometry" />
        </mxCell>
        <mxCell id="fS-SIkq6SePZpKo5QlOM-144" value="" style="image;aspect=fixed;html=1;points=[];align=center;fontSize=12;image=img/lib/azure2/networking/Web_Application_Firewall_Policies_WAF.svg;" parent="1" vertex="1">
          <mxGeometry x="-833.5" y="486.79" width="44" height="44" as="geometry" />
        </mxCell>
        <mxCell id="fS-SIkq6SePZpKo5QlOM-145" style="html=1;startArrow=none;startFill=0;startSize=10;endArrow=none;endFill=0;endSize=10;strokeWidth=3;fontSize=11;fontColor=#FFFFFF;strokeColor=#FFFFFF;rounded=0;entryX=0;entryY=0.5;entryDx=0;entryDy=0;entryPerimeter=0;" parent="1" target="fS-SIkq6SePZpKo5QlOM-10" edge="1">
          <mxGeometry relative="1" as="geometry">
            <mxPoint x="-803" y="561.7900000000001" as="sourcePoint" />
            <mxPoint x="-717.8" y="530.7900000000001" as="targetPoint" />
          </mxGeometry>
        </mxCell>
        <mxCell id="fS-SIkq6SePZpKo5QlOM-146" style="html=1;startArrow=none;startFill=0;startSize=10;endArrow=none;endFill=0;endSize=10;strokeWidth=3;fontSize=11;fontColor=#FFFFFF;strokeColor=#FFFFFF;rounded=0;entryX=0;entryY=0.5;entryDx=0;entryDy=0;entryPerimeter=0;" parent="1" source="fS-SIkq6SePZpKo5QlOM-143" target="fS-SIkq6SePZpKo5QlOM-12" edge="1">
          <mxGeometry relative="1" as="geometry">
            <mxPoint x="-803" y="571.7900000000001" as="sourcePoint" />
            <mxPoint x="-633" y="551.7900000000001" as="targetPoint" />
          </mxGeometry>
        </mxCell>
        <mxCell id="fS-SIkq6SePZpKo5QlOM-147" style="html=1;startArrow=none;startFill=0;startSize=10;endArrow=none;endFill=0;endSize=10;strokeWidth=3;fontSize=11;fontColor=#FFFFFF;strokeColor=#FFFFFF;rounded=0;exitX=0.644;exitY=0.367;exitPerimeter=0;entryX=0;entryY=0.5;entryDx=0;entryDy=0;entryPerimeter=0;exitDx=0;exitDy=0;" parent="1" source="fS-SIkq6SePZpKo5QlOM-143" target="fS-SIkq6SePZpKo5QlOM-14" edge="1">
          <mxGeometry relative="1" as="geometry">
            <mxPoint x="-778" y="620.7900000000001" as="sourcePoint" />
            <mxPoint x="-633" y="611.7900000000001" as="targetPoint" />
          </mxGeometry>
        </mxCell>
        <mxCell id="fS-SIkq6SePZpKo5QlOM-149" value="" style="rounded=1;whiteSpace=wrap;html=1;shadow=0;strokeWidth=2;fillColor=none;fontSize=12;fontColor=#000000;align=center;strokeColor=#FFFFFF;arcSize=10;" parent="1" vertex="1">
          <mxGeometry x="-876.5" y="426.79" width="130" height="241" as="geometry" />
        </mxCell>
        <mxCell id="fS-SIkq6SePZpKo5QlOM-150" value="&lt;font style=&quot;font-size: 9px;&quot;&gt;WAF&lt;/font&gt;" style="text;strokeColor=none;align=center;fillColor=none;html=1;verticalAlign=middle;whiteSpace=wrap;rounded=0;" parent="1" vertex="1">
          <mxGeometry x="-839.5" y="522.7900000000001" width="60" height="30" as="geometry" />
        </mxCell>
        <mxCell id="fS-SIkq6SePZpKo5QlOM-151" value="&lt;font style=&quot;font-size: 9px;&quot;&gt;Application Gateway&lt;/font&gt;" style="text;strokeColor=none;align=center;fillColor=none;html=1;verticalAlign=middle;whiteSpace=wrap;rounded=0;" parent="1" vertex="1">
          <mxGeometry x="-859.5" y="603.7900000000001" width="100" height="30" as="geometry" />
        </mxCell>
        <mxCell id="fS-SIkq6SePZpKo5QlOM-152" value="&lt;font style=&quot;font-size: 10px;&quot;&gt;AG-Subnet&lt;/font&gt;" style="text;strokeColor=none;align=center;fillColor=none;html=1;verticalAlign=middle;whiteSpace=wrap;rounded=0;" parent="1" vertex="1">
          <mxGeometry x="-876.5" y="426.79" width="60" height="30" as="geometry" />
        </mxCell>
        <mxCell id="fS-SIkq6SePZpKo5QlOM-153" value="&lt;font style=&quot;font-size: 10px;&quot;&gt;10.0.4.0/24&lt;/font&gt;" style="text;strokeColor=none;align=center;fillColor=none;html=1;verticalAlign=middle;whiteSpace=wrap;rounded=0;" parent="1" vertex="1">
          <mxGeometry x="-876.5" y="436.79" width="60" height="30" as="geometry" />
        </mxCell>
        <mxCell id="fS-SIkq6SePZpKo5QlOM-154" value="" style="image;aspect=fixed;html=1;points=[];align=center;fontSize=12;image=img/lib/azure2/networking/Application_Gateways.svg;direction=south;" parent="1" vertex="1">
          <mxGeometry x="1779" y="545" width="64" height="64" as="geometry" />
        </mxCell>
        <mxCell id="fS-SIkq6SePZpKo5QlOM-155" value="" style="image;aspect=fixed;html=1;points=[];align=center;fontSize=12;image=img/lib/azure2/networking/Web_Application_Firewall_Policies_WAF.svg;" parent="1" vertex="1">
          <mxGeometry x="1789" y="484" width="44" height="44" as="geometry" />
        </mxCell>
        <mxCell id="fS-SIkq6SePZpKo5QlOM-157" value="&lt;font style=&quot;font-size: 9px;&quot;&gt;WAF&lt;/font&gt;" style="text;strokeColor=none;align=center;fillColor=none;html=1;verticalAlign=middle;whiteSpace=wrap;rounded=0;" parent="1" vertex="1">
          <mxGeometry x="1783" y="520" width="60" height="30" as="geometry" />
        </mxCell>
        <mxCell id="fS-SIkq6SePZpKo5QlOM-158" value="&lt;font style=&quot;font-size: 9px;&quot;&gt;Application Gateway&lt;/font&gt;" style="text;strokeColor=none;align=center;fillColor=none;html=1;verticalAlign=middle;whiteSpace=wrap;rounded=0;" parent="1" vertex="1">
          <mxGeometry x="1763" y="601" width="100" height="30" as="geometry" />
        </mxCell>
        <mxCell id="fS-SIkq6SePZpKo5QlOM-159" value="&lt;font style=&quot;font-size: 10px;&quot;&gt;AG-Subnet&lt;/font&gt;" style="text;strokeColor=none;align=center;fillColor=none;html=1;verticalAlign=middle;whiteSpace=wrap;rounded=0;" parent="1" vertex="1">
          <mxGeometry x="1740" y="415" width="60" height="30" as="geometry" />
        </mxCell>
        <mxCell id="fS-SIkq6SePZpKo5QlOM-160" value="&lt;font style=&quot;font-size: 10px;&quot;&gt;10.1.4.0/24&lt;/font&gt;" style="text;strokeColor=none;align=center;fillColor=none;html=1;verticalAlign=middle;whiteSpace=wrap;rounded=0;" parent="1" vertex="1">
          <mxGeometry x="1740" y="426" width="60" height="30" as="geometry" />
        </mxCell>
        <mxCell id="fS-SIkq6SePZpKo5QlOM-162" style="html=1;startArrow=none;startFill=0;startSize=10;endArrow=none;endFill=0;endSize=10;strokeWidth=3;fontSize=11;fontColor=#FFFFFF;entryX=0.234;entryY=0.516;entryPerimeter=0;strokeColor=#FFFFFF;rounded=0;exitX=0;exitY=0.5;exitDx=0;exitDy=0;exitPerimeter=0;entryDx=0;entryDy=0;" parent="1" source="23046e2b9bb16c14-59" target="fS-SIkq6SePZpKo5QlOM-154" edge="1">
          <mxGeometry relative="1" as="geometry">
            <mxPoint x="1965.35" y="526" as="sourcePoint" />
            <mxPoint x="1930.35" y="550" as="targetPoint" />
          </mxGeometry>
        </mxCell>
        <mxCell id="fS-SIkq6SePZpKo5QlOM-163" style="html=1;startArrow=none;startFill=0;startSize=10;endArrow=none;endFill=0;endSize=10;strokeWidth=3;fontSize=11;fontColor=#FFFFFF;entryX=0.417;entryY=0.006;entryPerimeter=0;strokeColor=#FFFFFF;rounded=0;exitX=0;exitY=0.5;exitDx=0;exitDy=0;exitPerimeter=0;entryDx=0;entryDy=0;" parent="1" source="23046e2b9bb16c14-60" target="fS-SIkq6SePZpKo5QlOM-154" edge="1">
          <mxGeometry relative="1" as="geometry">
            <mxPoint x="1996" y="540" as="sourcePoint" />
            <mxPoint x="1810" y="591" as="targetPoint" />
          </mxGeometry>
        </mxCell>
        <mxCell id="fS-SIkq6SePZpKo5QlOM-164" style="html=1;startArrow=none;startFill=0;startSize=10;endArrow=none;endFill=0;endSize=10;strokeWidth=3;fontSize=11;fontColor=#FFFFFF;strokeColor=#FFFFFF;rounded=0;exitX=0;exitY=0.5;exitDx=0;exitDy=0;exitPerimeter=0;entryX=0.446;entryY=-0.024;entryDx=0;entryDy=0;entryPerimeter=0;" parent="1" source="23046e2b9bb16c14-61" target="fS-SIkq6SePZpKo5QlOM-158" edge="1">
          <mxGeometry relative="1" as="geometry">
            <mxPoint x="1996" y="590" as="sourcePoint" />
            <mxPoint x="1843" y="600" as="targetPoint" />
          </mxGeometry>
        </mxCell>
        <mxCell id="fS-SIkq6SePZpKo5QlOM-169" value="" style="rounded=1;whiteSpace=wrap;html=1;shadow=0;strokeWidth=2;fillColor=none;fontSize=12;fontColor=#000000;align=center;strokeColor=#FFFFFF;" parent="1" vertex="1">
          <mxGeometry x="-421.57999999999987" y="418.93" width="180" height="240" as="geometry" />
        </mxCell>
        <mxCell id="fS-SIkq6SePZpKo5QlOM-170" value="" style="image;aspect=fixed;html=1;points=[];align=center;fontSize=12;image=img/lib/azure2/networking/Public_IP_Addresses_Classic.svg;" parent="1" vertex="1">
          <mxGeometry x="-391.57999999999987" y="527.4300000000001" width="44.31" height="36" as="geometry" />
        </mxCell>
        <mxCell id="fS-SIkq6SePZpKo5QlOM-171" value="" style="image;aspect=fixed;html=1;points=[];align=center;fontSize=12;image=img/lib/azure2/networking/Bastions.svg;" parent="1" vertex="1">
          <mxGeometry x="-298.32999999999987" y="527.4300000000001" width="33.5" height="39.28" as="geometry" />
        </mxCell>
        <mxCell id="fS-SIkq6SePZpKo5QlOM-172" value="" style="rounded=1;whiteSpace=wrap;html=1;shadow=0;strokeWidth=2;fillColor=none;fontSize=11;fontColor=#FFFFFF;align=center;strokeColor=#FFFFFF;dashed=1;verticalAlign=top;" parent="1" vertex="1">
          <mxGeometry x="-401.57999999999987" y="518.9300000000001" width="60" height="60" as="geometry" />
        </mxCell>
        <mxCell id="fS-SIkq6SePZpKo5QlOM-173" value="" style="rounded=1;whiteSpace=wrap;html=1;shadow=0;strokeWidth=2;fillColor=none;fontSize=11;fontColor=#FFFFFF;align=center;strokeColor=#FFFFFF;dashed=1;verticalAlign=top;" parent="1" vertex="1">
          <mxGeometry x="-308.32999999999987" y="518.9300000000001" width="50" height="60" as="geometry" />
        </mxCell>
        <mxCell id="fS-SIkq6SePZpKo5QlOM-174" value="&lt;font style=&quot;font-size: 8px;&quot;&gt;Public-IP&lt;/font&gt;" style="text;strokeColor=none;align=center;fillColor=none;html=1;verticalAlign=middle;whiteSpace=wrap;rounded=0;" parent="1" vertex="1">
          <mxGeometry x="-401.57999999999987" y="554.9300000000001" width="60" height="30" as="geometry" />
        </mxCell>
        <mxCell id="fS-SIkq6SePZpKo5QlOM-175" value="&lt;font style=&quot;font-size: 8px;&quot;&gt;Bastion&lt;/font&gt;" style="text;strokeColor=none;align=center;fillColor=none;html=1;verticalAlign=middle;whiteSpace=wrap;rounded=0;" parent="1" vertex="1">
          <mxGeometry x="-311.57999999999987" y="554.9300000000001" width="60" height="30" as="geometry" />
        </mxCell>
        <mxCell id="fS-SIkq6SePZpKo5QlOM-176" value="&lt;font style=&quot;font-size: 10px;&quot;&gt;Azure Bastion Subnet&lt;/font&gt;" style="text;strokeColor=none;align=center;fillColor=none;html=1;verticalAlign=middle;whiteSpace=wrap;rounded=0;" parent="1" vertex="1">
          <mxGeometry x="-411.57999999999987" y="418.93" width="100" height="30" as="geometry" />
        </mxCell>
        <mxCell id="fS-SIkq6SePZpKo5QlOM-177" value="&lt;font style=&quot;font-size: 10px;&quot;&gt;10.0.5.0/24&lt;/font&gt;" style="text;strokeColor=none;align=center;fillColor=none;html=1;verticalAlign=middle;whiteSpace=wrap;rounded=0;" parent="1" vertex="1">
          <mxGeometry x="-391.57999999999987" y="434.93" width="60" height="30" as="geometry" />
        </mxCell>
        <mxCell id="fS-SIkq6SePZpKo5QlOM-178" value="" style="image;aspect=fixed;html=1;points=[];align=center;fontSize=12;image=img/lib/azure2/networking/Network_Security_Groups.svg;" parent="1" vertex="1">
          <mxGeometry x="-429.99999999999994" y="400.43" width="28.42" height="34.5" as="geometry" />
        </mxCell>
        <mxCell id="fS-SIkq6SePZpKo5QlOM-180" value="" style="endArrow=classic;startArrow=classic;html=1;rounded=0;entryX=0.004;entryY=0.551;entryDx=0;entryDy=0;entryPerimeter=0;exitX=1.002;exitY=0.538;exitDx=0;exitDy=0;exitPerimeter=0;" parent="1" source="fS-SIkq6SePZpKo5QlOM-2" target="fS-SIkq6SePZpKo5QlOM-169" edge="1">
          <mxGeometry width="50" height="50" relative="1" as="geometry">
            <mxPoint x="-470" y="610" as="sourcePoint" />
            <mxPoint x="-420" y="560" as="targetPoint" />
          </mxGeometry>
        </mxCell>
        <mxCell id="fS-SIkq6SePZpKo5QlOM-182" value="" style="endArrow=classic;startArrow=classic;html=1;rounded=0;entryX=0.004;entryY=0.551;entryDx=0;entryDy=0;entryPerimeter=0;exitX=1.002;exitY=0.538;exitDx=0;exitDy=0;exitPerimeter=0;" parent="1" edge="1">
          <mxGeometry width="50" height="50" relative="1" as="geometry">
            <mxPoint x="-242" y="550" as="sourcePoint" />
            <mxPoint x="-191" y="551" as="targetPoint" />
          </mxGeometry>
        </mxCell>
        <mxCell id="fS-SIkq6SePZpKo5QlOM-184" value="&lt;font style=&quot;font-size: 6px;&quot;&gt;Remote Protocol&lt;/font&gt;" style="text;strokeColor=none;align=center;fillColor=none;html=1;verticalAlign=middle;whiteSpace=wrap;rounded=0;" parent="1" vertex="1">
          <mxGeometry x="-491.58" y="527.5" width="90" height="30" as="geometry" />
        </mxCell>
        <mxCell id="fS-SIkq6SePZpKo5QlOM-185" value="&lt;font style=&quot;font-size: 7px;&quot;&gt;(RDP,SSH)&lt;/font&gt;" style="text;strokeColor=none;align=center;fillColor=none;html=1;verticalAlign=middle;whiteSpace=wrap;rounded=0;" parent="1" vertex="1">
          <mxGeometry x="-476.58" y="540.5" width="60" height="30" as="geometry" />
        </mxCell>
        <mxCell id="fS-SIkq6SePZpKo5QlOM-186" value="&lt;font style=&quot;font-size: 6px;&quot;&gt;Remote Protocol&lt;/font&gt;" style="text;strokeColor=none;align=center;fillColor=none;html=1;verticalAlign=middle;whiteSpace=wrap;rounded=0;" parent="1" vertex="1">
          <mxGeometry x="-270" y="528" width="110" height="30" as="geometry" />
        </mxCell>
        <mxCell id="fS-SIkq6SePZpKo5QlOM-187" value="&lt;font style=&quot;font-size: 7px;&quot;&gt;(RDP,SSH)&lt;/font&gt;" style="text;strokeColor=none;align=center;fillColor=none;html=1;verticalAlign=middle;whiteSpace=wrap;rounded=0;" parent="1" vertex="1">
          <mxGeometry x="-250" y="540.5" width="60" height="30" as="geometry" />
        </mxCell>
        <mxCell id="fS-SIkq6SePZpKo5QlOM-190" value="" style="image;aspect=fixed;html=1;points=[];align=center;fontSize=12;image=img/lib/azure2/management_governance/Monitor.svg;" parent="1" vertex="1">
          <mxGeometry x="-401.58" y="264" width="26" height="26" as="geometry" />
        </mxCell>
        <mxCell id="fS-SIkq6SePZpKo5QlOM-191" value="" style="endArrow=none;dashed=1;html=1;rounded=0;entryX=0.994;entryY=0.419;entryDx=0;entryDy=0;entryPerimeter=0;exitX=0.432;exitY=0.002;exitDx=0;exitDy=0;exitPerimeter=0;" parent="1" source="fS-SIkq6SePZpKo5QlOM-16" target="fS-SIkq6SePZpKo5QlOM-190" edge="1">
          <mxGeometry width="50" height="50" relative="1" as="geometry">
            <mxPoint x="-310" y="350" as="sourcePoint" />
            <mxPoint x="-260" y="300" as="targetPoint" />
          </mxGeometry>
        </mxCell>
        <mxCell id="fS-SIkq6SePZpKo5QlOM-192" value="" style="endArrow=none;dashed=1;html=1;dashPattern=1 3;strokeWidth=2;rounded=0;entryX=0.609;entryY=0.984;entryDx=0;entryDy=0;entryPerimeter=0;exitX=0.5;exitY=0;exitDx=0;exitDy=0;" parent="1" source="fS-SIkq6SePZpKo5QlOM-2" target="fS-SIkq6SePZpKo5QlOM-190" edge="1">
          <mxGeometry width="50" height="50" relative="1" as="geometry">
            <mxPoint x="-490" y="360" as="sourcePoint" />
            <mxPoint x="-440" y="310" as="targetPoint" />
          </mxGeometry>
        </mxCell>
        <mxCell id="fS-SIkq6SePZpKo5QlOM-193" value="" style="endArrow=none;dashed=1;html=1;rounded=0;entryX=-0.001;entryY=0.509;entryDx=0;entryDy=0;entryPerimeter=0;exitX=1;exitY=0;exitDx=0;exitDy=0;" parent="1" source="fS-SIkq6SePZpKo5QlOM-152" target="fS-SIkq6SePZpKo5QlOM-190" edge="1">
          <mxGeometry width="50" height="50" relative="1" as="geometry">
            <mxPoint x="-560" y="350" as="sourcePoint" />
            <mxPoint x="-510" y="300" as="targetPoint" />
          </mxGeometry>
        </mxCell>
        <mxCell id="fS-SIkq6SePZpKo5QlOM-194" value="" style="image;aspect=fixed;html=1;points=[];align=center;fontSize=12;image=img/lib/azure2/analytics/Log_Analytics_Workspaces.svg;" parent="1" vertex="1">
          <mxGeometry x="-296.83" y="256" width="32" height="32" as="geometry" />
        </mxCell>
        <mxCell id="fS-SIkq6SePZpKo5QlOM-195" value="" style="endArrow=none;dashed=1;html=1;dashPattern=1 3;strokeWidth=1;rounded=0;exitX=0.973;exitY=0.316;exitDx=0;exitDy=0;exitPerimeter=0;entryX=-0.02;entryY=0.74;entryDx=0;entryDy=0;entryPerimeter=0;" parent="1" source="fS-SIkq6SePZpKo5QlOM-190" target="fS-SIkq6SePZpKo5QlOM-194" edge="1">
          <mxGeometry width="50" height="50" relative="1" as="geometry">
            <mxPoint x="-370" y="330" as="sourcePoint" />
            <mxPoint x="-300" y="280" as="targetPoint" />
          </mxGeometry>
        </mxCell>
        <mxCell id="fS-SIkq6SePZpKo5QlOM-196" value="" style="image;aspect=fixed;html=1;points=[];align=center;fontSize=12;image=img/lib/azure2/management_governance/Diagnostics_Settings.svg;" parent="1" vertex="1">
          <mxGeometry x="-331.58" y="324" width="17.63" height="21.08" as="geometry" />
        </mxCell>
        <mxCell id="fS-SIkq6SePZpKo5QlOM-197" value="" style="endArrow=none;dashed=1;html=1;dashPattern=1 3;strokeWidth=1;rounded=0;entryX=0.089;entryY=0.036;entryDx=0;entryDy=0;entryPerimeter=0;exitX=0.913;exitY=0.859;exitDx=0;exitDy=0;exitPerimeter=0;" parent="1" source="fS-SIkq6SePZpKo5QlOM-190" target="fS-SIkq6SePZpKo5QlOM-196" edge="1">
          <mxGeometry width="50" height="50" relative="1" as="geometry">
            <mxPoint x="-440" y="380" as="sourcePoint" />
            <mxPoint x="-390" y="330" as="targetPoint" />
          </mxGeometry>
        </mxCell>
        <mxCell id="fS-SIkq6SePZpKo5QlOM-198" value="" style="image;aspect=fixed;html=1;points=[];align=center;fontSize=12;image=img/lib/azure2/security/Security_Center.svg;" parent="1" vertex="1">
          <mxGeometry x="-495.58" y="264" width="19" height="23.07" as="geometry" />
        </mxCell>
        <mxCell id="fS-SIkq6SePZpKo5QlOM-199" value="" style="endArrow=none;dashed=1;html=1;dashPattern=1 3;strokeWidth=1;rounded=0;entryX=-0.007;entryY=0.361;entryDx=0;entryDy=0;entryPerimeter=0;exitX=0.974;exitY=0.526;exitDx=0;exitDy=0;exitPerimeter=0;" parent="1" source="fS-SIkq6SePZpKo5QlOM-198" target="fS-SIkq6SePZpKo5QlOM-190" edge="1">
          <mxGeometry width="50" height="50" relative="1" as="geometry">
            <mxPoint x="-480" y="340" as="sourcePoint" />
            <mxPoint x="-430" y="290" as="targetPoint" />
          </mxGeometry>
        </mxCell>
        <mxCell id="fS-SIkq6SePZpKo5QlOM-200" value="&lt;font style=&quot;font-size: 8px;&quot;&gt;Azure Monitor&lt;/font&gt;" style="text;strokeColor=none;align=center;fillColor=none;html=1;verticalAlign=middle;whiteSpace=wrap;rounded=0;" parent="1" vertex="1">
          <mxGeometry x="-418.58" y="276.9" width="60" height="30" as="geometry" />
        </mxCell>
        <mxCell id="fS-SIkq6SePZpKo5QlOM-203" value="&lt;font style=&quot;font-size: 9px;&quot;&gt;LogAnalytics Workspace&lt;/font&gt;" style="text;strokeColor=none;align=center;fillColor=none;html=1;verticalAlign=middle;whiteSpace=wrap;rounded=0;" parent="1" vertex="1">
          <mxGeometry x="-340" y="276.9" width="140" height="30" as="geometry" />
        </mxCell>
        <mxCell id="fS-SIkq6SePZpKo5QlOM-204" value="&lt;font style=&quot;font-size: 9px;&quot;&gt;Diagnostics Settings&lt;/font&gt;" style="text;strokeColor=none;align=center;fillColor=none;html=1;verticalAlign=middle;whiteSpace=wrap;rounded=0;" parent="1" vertex="1">
          <mxGeometry x="-367.76" y="340" width="90" height="30" as="geometry" />
        </mxCell>
        <mxCell id="fS-SIkq6SePZpKo5QlOM-205" value="&lt;font style=&quot;font-size: 9px;&quot;&gt;Azure Security Centre&lt;/font&gt;" style="text;strokeColor=none;align=center;fillColor=none;html=1;verticalAlign=middle;whiteSpace=wrap;rounded=0;" parent="1" vertex="1">
          <mxGeometry x="-560" y="276.9" width="130" height="30" as="geometry" />
        </mxCell>
        <mxCell id="fS-SIkq6SePZpKo5QlOM-207" value="&lt;font style=&quot;font-size: 9px;&quot;&gt;NSG-3&lt;/font&gt;" style="text;strokeColor=none;align=center;fillColor=none;html=1;verticalAlign=middle;whiteSpace=wrap;rounded=0;" parent="1" vertex="1">
          <mxGeometry x="-418.58" y="390" width="60" height="30" as="geometry" />
        </mxCell>
        <mxCell id="fS-SIkq6SePZpKo5QlOM-208" value="" style="image;aspect=fixed;html=1;points=[];align=center;fontSize=12;image=img/lib/azure2/management_governance/Monitor.svg;" parent="1" vertex="1">
          <mxGeometry x="2142.5" y="280" width="24" height="24" as="geometry" />
        </mxCell>
        <mxCell id="fS-SIkq6SePZpKo5QlOM-209" value="" style="endArrow=none;dashed=1;html=1;rounded=0;entryX=-0.026;entryY=0.505;entryDx=0;entryDy=0;entryPerimeter=0;exitX=0.5;exitY=0;exitDx=0;exitDy=0;" parent="1" source="23046e2b9bb16c14-55" target="fS-SIkq6SePZpKo5QlOM-208" edge="1">
          <mxGeometry width="50" height="50" relative="1" as="geometry">
            <mxPoint x="2050" y="350" as="sourcePoint" />
            <mxPoint x="2100" y="300" as="targetPoint" />
          </mxGeometry>
        </mxCell>
        <mxCell id="fS-SIkq6SePZpKo5QlOM-210" value="" style="endArrow=none;dashed=1;html=1;rounded=0;entryX=0.083;entryY=0.623;entryDx=0;entryDy=0;entryPerimeter=0;exitX=0.5;exitY=0;exitDx=0;exitDy=0;" parent="1" target="fS-SIkq6SePZpKo5QlOM-208" edge="1">
          <mxGeometry width="50" height="50" relative="1" as="geometry">
            <mxPoint x="1805" y="416" as="sourcePoint" />
            <mxPoint x="2000" y="310" as="targetPoint" />
          </mxGeometry>
        </mxCell>
        <mxCell id="fS-SIkq6SePZpKo5QlOM-211" value="" style="endArrow=none;dashed=1;html=1;rounded=0;entryX=0.949;entryY=0.525;entryDx=0;entryDy=0;entryPerimeter=0;exitX=0.5;exitY=0;exitDx=0;exitDy=0;" parent="1" source="fS-SIkq6SePZpKo5QlOM-28" target="fS-SIkq6SePZpKo5QlOM-208" edge="1">
          <mxGeometry width="50" height="50" relative="1" as="geometry">
            <mxPoint x="2260" y="360" as="sourcePoint" />
            <mxPoint x="2310" y="310" as="targetPoint" />
          </mxGeometry>
        </mxCell>
        <mxCell id="fS-SIkq6SePZpKo5QlOM-212" value="" style="image;aspect=fixed;html=1;points=[];align=center;fontSize=12;image=img/lib/azure2/analytics/Log_Analytics_Workspaces.svg;" parent="1" vertex="1">
          <mxGeometry x="2276" y="274" width="30" height="30" as="geometry" />
        </mxCell>
        <mxCell id="fS-SIkq6SePZpKo5QlOM-213" value="" style="image;aspect=fixed;html=1;points=[];align=center;fontSize=12;image=img/lib/azure2/management_governance/Diagnostics_Settings.svg;" parent="1" vertex="1">
          <mxGeometry x="2300" y="339.99999999999994" width="16" height="19.15" as="geometry" />
        </mxCell>
        <mxCell id="fS-SIkq6SePZpKo5QlOM-214" value="" style="endArrow=none;dashed=1;html=1;dashPattern=1 3;strokeWidth=1;rounded=0;entryX=-0.03;entryY=0.72;entryDx=0;entryDy=0;entryPerimeter=0;exitX=0.975;exitY=0.45;exitDx=0;exitDy=0;exitPerimeter=0;" parent="1" source="fS-SIkq6SePZpKo5QlOM-208" target="fS-SIkq6SePZpKo5QlOM-212" edge="1">
          <mxGeometry width="50" height="50" relative="1" as="geometry">
            <mxPoint x="2180" y="360" as="sourcePoint" />
            <mxPoint x="2230" y="310" as="targetPoint" />
          </mxGeometry>
        </mxCell>
        <mxCell id="fS-SIkq6SePZpKo5QlOM-215" value="" style="endArrow=none;dashed=1;html=1;dashPattern=1 3;strokeWidth=1;rounded=0;entryX=0.031;entryY=0.583;entryDx=0;entryDy=0;entryPerimeter=0;exitX=1.008;exitY=0.8;exitDx=0;exitDy=0;exitPerimeter=0;" parent="1" source="fS-SIkq6SePZpKo5QlOM-208" target="fS-SIkq6SePZpKo5QlOM-213" edge="1">
          <mxGeometry width="50" height="50" relative="1" as="geometry">
            <mxPoint x="2140" y="380" as="sourcePoint" />
            <mxPoint x="2190" y="330" as="targetPoint" />
          </mxGeometry>
        </mxCell>
        <mxCell id="fS-SIkq6SePZpKo5QlOM-216" value="" style="image;aspect=fixed;html=1;points=[];align=center;fontSize=12;image=img/lib/azure2/security/Security_Center.svg;" parent="1" vertex="1">
          <mxGeometry x="2025.5" y="276.90000000000003" width="20.5" height="24.89" as="geometry" />
        </mxCell>
        <mxCell id="fS-SIkq6SePZpKo5QlOM-217" value="" style="endArrow=none;dashed=1;html=1;dashPattern=1 3;strokeWidth=1;rounded=0;entryX=0.025;entryY=0.483;entryDx=0;entryDy=0;entryPerimeter=0;exitX=1.015;exitY=0.494;exitDx=0;exitDy=0;exitPerimeter=0;" parent="1" source="fS-SIkq6SePZpKo5QlOM-216" target="fS-SIkq6SePZpKo5QlOM-208" edge="1">
          <mxGeometry width="50" height="50" relative="1" as="geometry">
            <mxPoint x="2050" y="330" as="sourcePoint" />
            <mxPoint x="2100" y="280" as="targetPoint" />
          </mxGeometry>
        </mxCell>
        <mxCell id="fS-SIkq6SePZpKo5QlOM-218" value="&lt;font style=&quot;font-size: 9px;&quot;&gt;Azure Monitor&lt;/font&gt;" style="text;strokeColor=none;align=center;fillColor=none;html=1;verticalAlign=middle;whiteSpace=wrap;rounded=0;" parent="1" vertex="1">
          <mxGeometry x="2124.5" y="294" width="60" height="30" as="geometry" />
        </mxCell>
        <mxCell id="fS-SIkq6SePZpKo5QlOM-219" value="&lt;font style=&quot;font-size: 9px;&quot;&gt;LogAnalytics Workspace&lt;/font&gt;" style="text;strokeColor=none;align=center;fillColor=none;html=1;verticalAlign=middle;whiteSpace=wrap;rounded=0;" parent="1" vertex="1">
          <mxGeometry x="2226" y="294" width="110" height="30" as="geometry" />
        </mxCell>
        <mxCell id="fS-SIkq6SePZpKo5QlOM-220" value="&lt;font style=&quot;font-size: 9px;&quot;&gt;Diagonstics Workspace&lt;/font&gt;" style="text;strokeColor=none;align=center;fillColor=none;html=1;verticalAlign=middle;whiteSpace=wrap;rounded=0;" parent="1" vertex="1">
          <mxGeometry x="2231" y="350" width="160" height="30" as="geometry" />
        </mxCell>
        <mxCell id="fS-SIkq6SePZpKo5QlOM-221" value="&lt;font style=&quot;font-size: 9px;&quot;&gt;Azure Security Centre&lt;/font&gt;" style="text;strokeColor=none;align=center;fillColor=none;html=1;verticalAlign=middle;whiteSpace=wrap;rounded=0;" parent="1" vertex="1">
          <mxGeometry x="1970.75" y="290" width="130" height="30" as="geometry" />
        </mxCell>
        <mxCell id="fS-SIkq6SePZpKo5QlOM-222" value="" style="rounded=1;whiteSpace=wrap;html=1;shadow=0;strokeWidth=2;fillColor=none;fontSize=12;fontColor=#000000;align=center;strokeColor=#FFFFFF;" parent="1" vertex="1">
          <mxGeometry x="2174.92" y="418.93" width="180" height="240" as="geometry" />
        </mxCell>
        <mxCell id="fS-SIkq6SePZpKo5QlOM-223" value="" style="image;aspect=fixed;html=1;points=[];align=center;fontSize=12;image=img/lib/azure2/networking/Public_IP_Addresses_Classic.svg;" parent="1" vertex="1">
          <mxGeometry x="2204.92" y="527.4300000000001" width="44.31" height="36" as="geometry" />
        </mxCell>
        <mxCell id="fS-SIkq6SePZpKo5QlOM-224" value="" style="image;aspect=fixed;html=1;points=[];align=center;fontSize=12;image=img/lib/azure2/networking/Bastions.svg;" parent="1" vertex="1">
          <mxGeometry x="2298.17" y="527.4300000000001" width="33.5" height="39.28" as="geometry" />
        </mxCell>
        <mxCell id="fS-SIkq6SePZpKo5QlOM-225" value="" style="rounded=1;whiteSpace=wrap;html=1;shadow=0;strokeWidth=2;fillColor=none;fontSize=11;fontColor=#FFFFFF;align=center;strokeColor=#FFFFFF;dashed=1;verticalAlign=top;" parent="1" vertex="1">
          <mxGeometry x="2194.92" y="518.9300000000001" width="60" height="60" as="geometry" />
        </mxCell>
        <mxCell id="fS-SIkq6SePZpKo5QlOM-226" value="" style="rounded=1;whiteSpace=wrap;html=1;shadow=0;strokeWidth=2;fillColor=none;fontSize=11;fontColor=#FFFFFF;align=center;strokeColor=#FFFFFF;dashed=1;verticalAlign=top;" parent="1" vertex="1">
          <mxGeometry x="2288.17" y="518.9300000000001" width="50" height="60" as="geometry" />
        </mxCell>
        <mxCell id="fS-SIkq6SePZpKo5QlOM-227" value="&lt;font style=&quot;font-size: 8px;&quot;&gt;Public-IP&lt;/font&gt;" style="text;strokeColor=none;align=center;fillColor=none;html=1;verticalAlign=middle;whiteSpace=wrap;rounded=0;" parent="1" vertex="1">
          <mxGeometry x="2194.92" y="554.9300000000001" width="60" height="30" as="geometry" />
        </mxCell>
        <mxCell id="fS-SIkq6SePZpKo5QlOM-228" value="&lt;font style=&quot;font-size: 8px;&quot;&gt;Bastion&lt;/font&gt;" style="text;strokeColor=none;align=center;fillColor=none;html=1;verticalAlign=middle;whiteSpace=wrap;rounded=0;" parent="1" vertex="1">
          <mxGeometry x="2284.92" y="554.9300000000001" width="60" height="30" as="geometry" />
        </mxCell>
        <mxCell id="fS-SIkq6SePZpKo5QlOM-229" value="&lt;font style=&quot;font-size: 10px;&quot;&gt;Azure Bastion Subnet&lt;/font&gt;" style="text;strokeColor=none;align=center;fillColor=none;html=1;verticalAlign=middle;whiteSpace=wrap;rounded=0;" parent="1" vertex="1">
          <mxGeometry x="2184.92" y="418.93" width="100" height="30" as="geometry" />
        </mxCell>
        <mxCell id="fS-SIkq6SePZpKo5QlOM-230" value="&lt;font style=&quot;font-size: 10px;&quot;&gt;10.0.5.0/24&lt;/font&gt;" style="text;strokeColor=none;align=center;fillColor=none;html=1;verticalAlign=middle;whiteSpace=wrap;rounded=0;" parent="1" vertex="1">
          <mxGeometry x="2204.92" y="434.93" width="60" height="30" as="geometry" />
        </mxCell>
        <mxCell id="fS-SIkq6SePZpKo5QlOM-231" value="" style="image;aspect=fixed;html=1;points=[];align=center;fontSize=12;image=img/lib/azure2/networking/Network_Security_Groups.svg;" parent="1" vertex="1">
          <mxGeometry x="2166.5" y="400.43" width="28.42" height="34.5" as="geometry" />
        </mxCell>
        <mxCell id="fS-SIkq6SePZpKo5QlOM-232" value="" style="rounded=1;whiteSpace=wrap;html=1;shadow=0;strokeWidth=2;fillColor=none;fontSize=12;fontColor=#000000;align=center;strokeColor=#FFFFFF;arcSize=9;" parent="1" vertex="1">
          <mxGeometry x="1720" y="417.29" width="160" height="241" as="geometry" />
        </mxCell>
        <mxCell id="fS-SIkq6SePZpKo5QlOM-233" value="&lt;font style=&quot;font-size: 5px;&quot;&gt;Remote Protocol&lt;/font&gt;" style="text;strokeColor=none;align=center;fillColor=none;html=1;verticalAlign=middle;whiteSpace=wrap;rounded=0;" parent="1" vertex="1">
          <mxGeometry x="2324" y="520" width="100" height="30" as="geometry" />
        </mxCell>
        <mxCell id="fS-SIkq6SePZpKo5QlOM-234" value="" style="endArrow=classic;startArrow=classic;html=1;rounded=0;entryX=-0.002;entryY=0.516;entryDx=0;entryDy=0;entryPerimeter=0;exitX=0.997;exitY=0.517;exitDx=0;exitDy=0;exitPerimeter=0;" parent="1" source="fS-SIkq6SePZpKo5QlOM-222" target="fS-SIkq6SePZpKo5QlOM-28" edge="1">
          <mxGeometry width="50" height="50" relative="1" as="geometry">
            <mxPoint x="2340" y="620" as="sourcePoint" />
            <mxPoint x="2390" y="570" as="targetPoint" />
          </mxGeometry>
        </mxCell>
        <mxCell id="fS-SIkq6SePZpKo5QlOM-235" value="&lt;font style=&quot;font-size: 5px;&quot;&gt;(RDP,SSH)&lt;/font&gt;" style="text;strokeColor=none;align=center;fillColor=none;html=1;verticalAlign=middle;whiteSpace=wrap;rounded=0;" parent="1" vertex="1">
          <mxGeometry x="2344" y="530.93" width="60" height="30" as="geometry" />
        </mxCell>
        <mxCell id="fS-SIkq6SePZpKo5QlOM-236" value="" style="endArrow=classic;startArrow=classic;html=1;rounded=0;entryX=-0.003;entryY=0.553;entryDx=0;entryDy=0;entryPerimeter=0;exitX=1;exitY=0.563;exitDx=0;exitDy=0;exitPerimeter=0;" parent="1" source="23046e2b9bb16c14-55" target="fS-SIkq6SePZpKo5QlOM-222" edge="1">
          <mxGeometry width="50" height="50" relative="1" as="geometry">
            <mxPoint x="2120" y="630" as="sourcePoint" />
            <mxPoint x="2170" y="580" as="targetPoint" />
          </mxGeometry>
        </mxCell>
        <mxCell id="fS-SIkq6SePZpKo5QlOM-237" value="&lt;font style=&quot;font-size: 4px;&quot;&gt;Remote Protocol&lt;/font&gt;" style="text;strokeColor=none;align=center;fillColor=none;html=1;verticalAlign=middle;whiteSpace=wrap;rounded=0;" parent="1" vertex="1">
          <mxGeometry x="2130" y="529" width="60" height="30" as="geometry" />
        </mxCell>
        <mxCell id="fS-SIkq6SePZpKo5QlOM-238" value="&lt;font style=&quot;font-size: 5px;&quot;&gt;(RDP,SSH)&lt;/font&gt;" style="text;strokeColor=none;align=center;fillColor=none;html=1;verticalAlign=middle;whiteSpace=wrap;rounded=0;" parent="1" vertex="1">
          <mxGeometry x="2130" y="540.5" width="60" height="30" as="geometry" />
        </mxCell>
        <mxCell id="fS-SIkq6SePZpKo5QlOM-239" value="&lt;font style=&quot;font-size: 9px;&quot;&gt;NSG-3&lt;/font&gt;" style="text;strokeColor=none;align=center;fillColor=none;html=1;verticalAlign=middle;whiteSpace=wrap;rounded=0;" parent="1" vertex="1">
          <mxGeometry x="2174.92" y="390.79" width="60" height="30" as="geometry" />
        </mxCell>
        <mxCell id="fS-SIkq6SePZpKo5QlOM-240" value="" style="image;aspect=fixed;html=1;points=[];align=center;fontSize=12;image=img/lib/azure2/intune/Azure_AD_Roles_and_Administrators.svg;" parent="1" vertex="1">
          <mxGeometry x="2142.5" y="737" width="27" height="27" as="geometry" />
        </mxCell>
        <mxCell id="fS-SIkq6SePZpKo5QlOM-241" value="" style="verticalLabelPosition=bottom;html=1;verticalAlign=top;align=center;strokeColor=none;fillColor=#00BEF2;shape=mxgraph.azure.azure_active_directory;" parent="1" vertex="1">
          <mxGeometry x="2124.5" y="740" width="29.5" height="24" as="geometry" />
        </mxCell>
        <mxCell id="fS-SIkq6SePZpKo5QlOM-242" value="" style="endArrow=none;dashed=1;html=1;dashPattern=1 3;strokeWidth=2;rounded=0;entryX=0.5;entryY=1;entryDx=0;entryDy=0;exitX=1.054;exitY=0.694;exitDx=0;exitDy=0;exitPerimeter=0;" parent="1" source="fS-SIkq6SePZpKo5QlOM-240" target="fS-SIkq6SePZpKo5QlOM-28" edge="1">
          <mxGeometry width="50" height="50" relative="1" as="geometry">
            <mxPoint x="2190" y="750" as="sourcePoint" />
            <mxPoint x="2240" y="700" as="targetPoint" />
          </mxGeometry>
        </mxCell>
        <mxCell id="fS-SIkq6SePZpKo5QlOM-243" value="" style="endArrow=none;dashed=1;html=1;dashPattern=1 3;strokeWidth=2;rounded=0;entryX=0.5;entryY=1;entryDx=0;entryDy=0;exitX=0.25;exitY=0.29;exitDx=0;exitDy=0;exitPerimeter=0;" parent="1" source="fS-SIkq6SePZpKo5QlOM-241" target="23046e2b9bb16c14-55" edge="1">
          <mxGeometry width="50" height="50" relative="1" as="geometry">
            <mxPoint x="2120" y="740" as="sourcePoint" />
            <mxPoint x="2170" y="690" as="targetPoint" />
          </mxGeometry>
        </mxCell>
        <mxCell id="fS-SIkq6SePZpKo5QlOM-244" value="" style="endArrow=none;dashed=1;html=1;dashPattern=1 3;strokeWidth=2;rounded=0;entryX=0;entryY=0.58;entryDx=0;entryDy=0;entryPerimeter=0;exitX=0.5;exitY=1;exitDx=0;exitDy=0;" parent="1" source="fS-SIkq6SePZpKo5QlOM-232" target="fS-SIkq6SePZpKo5QlOM-241" edge="1">
          <mxGeometry width="50" height="50" relative="1" as="geometry">
            <mxPoint x="2050" y="790" as="sourcePoint" />
            <mxPoint x="2100" y="740" as="targetPoint" />
          </mxGeometry>
        </mxCell>
        <mxCell id="fS-SIkq6SePZpKo5QlOM-245" value="&lt;font style=&quot;font-size: 9px;&quot;&gt;RABC &amp;amp; Azure Active Directory&lt;/font&gt;" style="text;strokeColor=none;align=center;fillColor=none;html=1;verticalAlign=middle;whiteSpace=wrap;rounded=0;" parent="1" vertex="1">
          <mxGeometry x="2109.42" y="764" width="75.5" height="30" as="geometry" />
        </mxCell>
        <mxCell id="fS-SIkq6SePZpKo5QlOM-246" value="&lt;font style=&quot;font-size: 9px;&quot;&gt;Database Admin&lt;/font&gt;" style="text;strokeColor=none;align=center;fillColor=none;html=1;verticalAlign=middle;whiteSpace=wrap;rounded=0;rotation=40;" parent="1" vertex="1">
          <mxGeometry x="2056" y="700" width="90" height="30" as="geometry" />
        </mxCell>
        <mxCell id="fS-SIkq6SePZpKo5QlOM-247" value="&lt;font style=&quot;font-size: 9px;&quot;&gt;Network Admin&lt;/font&gt;" style="text;strokeColor=none;align=center;fillColor=none;html=1;verticalAlign=middle;whiteSpace=wrap;rounded=0;rotation=15;" parent="1" vertex="1">
          <mxGeometry x="1935.5" y="690" width="90" height="30" as="geometry" />
        </mxCell>
        <mxCell id="fS-SIkq6SePZpKo5QlOM-248" value="&lt;font style=&quot;font-size: 9px;&quot;&gt;Application Admin&lt;/font&gt;" style="text;strokeColor=none;align=center;fillColor=none;html=1;verticalAlign=middle;whiteSpace=wrap;rounded=0;rotation=-15;" parent="1" vertex="1">
          <mxGeometry x="2276" y="690" width="100" height="30" as="geometry" />
        </mxCell>
        <mxCell id="fS-SIkq6SePZpKo5QlOM-250" value="" style="image;aspect=fixed;html=1;points=[];align=center;fontSize=12;image=img/lib/azure2/identity/Managed_Identities.svg;" parent="1" vertex="1">
          <mxGeometry x="2070.75" y="432" width="30" height="29.12" as="geometry" />
        </mxCell>
        <mxCell id="fS-SIkq6SePZpKo5QlOM-251" value="" style="image;aspect=fixed;html=1;points=[];align=center;fontSize=12;image=img/lib/azure2/security/Key_Vaults.svg;" parent="1" vertex="1">
          <mxGeometry x="2100.75" y="434.06" width="25" height="25" as="geometry" />
        </mxCell>
        <mxCell id="fS-SIkq6SePZpKo5QlOM-252" value="" style="image;aspect=fixed;html=1;points=[];align=center;fontSize=12;image=img/lib/azure2/identity/Managed_Identities.svg;" parent="1" vertex="1">
          <mxGeometry x="2552" y="425.88" width="30" height="29.12" as="geometry" />
        </mxCell>
        <mxCell id="fS-SIkq6SePZpKo5QlOM-253" value="" style="image;aspect=fixed;html=1;points=[];align=center;fontSize=12;image=img/lib/azure2/security/Key_Vaults.svg;" parent="1" vertex="1">
          <mxGeometry x="2582" y="428.93" width="25" height="25" as="geometry" />
        </mxCell>
        <mxCell id="fS-SIkq6SePZpKo5QlOM-254" value="&lt;font style=&quot;font-size: 7px;&quot;&gt;Azure MI &amp;amp; Key Vault&lt;/font&gt;" style="text;strokeColor=none;align=center;fillColor=none;html=1;verticalAlign=middle;whiteSpace=wrap;rounded=0;" parent="1" vertex="1">
          <mxGeometry x="2052.5" y="448.93" width="100" height="30" as="geometry" />
        </mxCell>
        <mxCell id="fS-SIkq6SePZpKo5QlOM-255" value="&lt;font style=&quot;font-size: 7px;&quot;&gt;Azure MI &amp;amp; Key Vault&lt;/font&gt;" style="text;strokeColor=none;align=center;fillColor=none;html=1;verticalAlign=middle;whiteSpace=wrap;rounded=0;" parent="1" vertex="1">
          <mxGeometry x="2537" y="445" width="100" height="30" as="geometry" />
        </mxCell>
        <mxCell id="bLyMRdO3awDTkPBl_gZE-1" value="" style="image;sketch=0;aspect=fixed;html=1;points=[];align=center;fontSize=12;image=img/lib/mscae/BlobBlock.svg;" vertex="1" parent="1">
          <mxGeometry x="2700" y="545" width="30" height="25.2" as="geometry" />
        </mxCell>
        <mxCell id="bLyMRdO3awDTkPBl_gZE-3" value="" style="image;aspect=fixed;html=1;points=[];align=center;fontSize=12;image=img/lib/azure2/iot/Function_Apps.svg;" vertex="1" parent="1">
          <mxGeometry x="2700" y="458.34" width="24" height="21.18" as="geometry" />
        </mxCell>
        <mxCell id="bLyMRdO3awDTkPBl_gZE-4" value="" style="endArrow=none;dashed=1;html=1;dashPattern=1 3;strokeWidth=2;rounded=0;entryX=-0.035;entryY=0.535;entryDx=0;entryDy=0;entryPerimeter=0;exitX=1;exitY=0.5;exitDx=0;exitDy=0;exitPerimeter=0;" edge="1" parent="1" source="fS-SIkq6SePZpKo5QlOM-33" target="bLyMRdO3awDTkPBl_gZE-3">
          <mxGeometry width="50" height="50" relative="1" as="geometry">
            <mxPoint x="2660" y="530" as="sourcePoint" />
            <mxPoint x="2710" y="480" as="targetPoint" />
          </mxGeometry>
        </mxCell>
        <mxCell id="bLyMRdO3awDTkPBl_gZE-5" value="" style="endArrow=none;dashed=1;html=1;dashPattern=1 3;strokeWidth=2;rounded=0;entryX=0.021;entryY=0.566;entryDx=0;entryDy=0;entryPerimeter=0;exitX=1;exitY=0.5;exitDx=0;exitDy=0;exitPerimeter=0;" edge="1" parent="1" target="bLyMRdO3awDTkPBl_gZE-3">
          <mxGeometry width="50" height="50" relative="1" as="geometry">
            <mxPoint x="2537" y="561.33" as="sourcePoint" />
            <mxPoint x="2699" y="520.33" as="targetPoint" />
          </mxGeometry>
        </mxCell>
        <mxCell id="bLyMRdO3awDTkPBl_gZE-6" value="" style="endArrow=none;dashed=1;html=1;dashPattern=1 3;strokeWidth=2;rounded=0;entryX=-0.007;entryY=0.661;entryDx=0;entryDy=0;entryPerimeter=0;exitX=1;exitY=0.5;exitDx=0;exitDy=0;exitPerimeter=0;" edge="1" parent="1" source="fS-SIkq6SePZpKo5QlOM-37" target="bLyMRdO3awDTkPBl_gZE-3">
          <mxGeometry width="50" height="50" relative="1" as="geometry">
            <mxPoint x="2537" y="601" as="sourcePoint" />
            <mxPoint x="2701" y="509.67" as="targetPoint" />
          </mxGeometry>
        </mxCell>
        <mxCell id="bLyMRdO3awDTkPBl_gZE-7" value="" style="endArrow=none;dashed=1;html=1;dashPattern=1 3;strokeWidth=2;rounded=0;entryX=0.521;entryY=1.038;entryDx=0;entryDy=0;entryPerimeter=0;exitX=0.483;exitY=0.053;exitDx=0;exitDy=0;exitPerimeter=0;" edge="1" parent="1" source="bLyMRdO3awDTkPBl_gZE-1" target="bLyMRdO3awDTkPBl_gZE-3">
          <mxGeometry width="50" height="50" relative="1" as="geometry">
            <mxPoint x="2750" y="520" as="sourcePoint" />
            <mxPoint x="2800" y="470" as="targetPoint" />
          </mxGeometry>
        </mxCell>
        <mxCell id="bLyMRdO3awDTkPBl_gZE-8" value="&lt;font style=&quot;font-size: 9px;&quot;&gt;Serverless Function&lt;/font&gt;" style="text;strokeColor=none;align=center;fillColor=none;html=1;verticalAlign=middle;whiteSpace=wrap;rounded=0;" vertex="1" parent="1">
          <mxGeometry x="2710" y="442" width="100" height="30" as="geometry" />
        </mxCell>
        <mxCell id="bLyMRdO3awDTkPBl_gZE-9" value="&lt;font style=&quot;font-size: 9px;&quot;&gt;Automatic Triggering&lt;/font&gt;" style="text;strokeColor=none;align=center;fillColor=none;html=1;verticalAlign=middle;whiteSpace=wrap;rounded=0;" vertex="1" parent="1">
          <mxGeometry x="2700" y="485" width="110" height="30" as="geometry" />
        </mxCell>
        <mxCell id="bLyMRdO3awDTkPBl_gZE-10" value="&lt;font style=&quot;font-size: 9px;&quot;&gt;Blob Storage&lt;/font&gt;" style="text;strokeColor=none;align=center;fillColor=none;html=1;verticalAlign=middle;whiteSpace=wrap;rounded=0;" vertex="1" parent="1">
          <mxGeometry x="2685" y="560" width="60" height="30" as="geometry" />
        </mxCell>
      </root>
    </mxGraphModel>
  </diagram>
</mxfile>
